<svg class="animated" id="freepik_stories-mobile-apps" xmlns="http://www.w3.org/2000/svg" viewBox="0 0 500 500" version="1.1" xmlns:xlink="http://www.w3.org/1999/xlink" xmlns:svgjs="http://svgjs.com/svgjs"><style>svg#freepik_stories-mobile-apps:not(.animated) .animable {opacity: 0;}svg#freepik_stories-mobile-apps.animated #freepik--background-complete--inject-2 {animation: 1s 1 forwards cubic-bezier(.36,-0.01,.5,1.38) slideDown,1.5s Infinite  linear floating;animation-delay: 0s,1s;}svg#freepik_stories-mobile-apps.animated #freepik--Floor--inject-2 {animation: 1s 1 forwards cubic-bezier(.36,-0.01,.5,1.38) slideUp;animation-delay: 0s;}svg#freepik_stories-mobile-apps.animated #freepik--Plants--inject-2 {animation: 1s 1 forwards cubic-bezier(.36,-0.01,.5,1.38) lightSpeedRight,1.5s Infinite  linear wind;animation-delay: 0.5s,1.5s;opacity: 0}svg#freepik_stories-mobile-apps.animated #freepik--Gears--inject-2 {animation: 1s 1 forwards cubic-bezier(.36,-0.01,.5,1.38) slideUp;animation-delay: 0s;}svg#freepik_stories-mobile-apps.animated #freepik--Device--inject-2 {animation: 1s 1 forwards cubic-bezier(.36,-0.01,.5,1.38) lightSpeedRight,6s Infinite  linear heartbeat;animation-delay: 1s,2s;opacity: 0}svg#freepik_stories-mobile-apps.animated #freepik--Character--inject-2 {animation: 1s 1 forwards cubic-bezier(.36,-0.01,.5,1.38) slideDown,1.5s Infinite  linear wind;animation-delay: 0s,1s;}            @keyframes slideDown {                0% {                    opacity: 0;                    transform: translateY(-30px);                }                100% {                    opacity: 1;                    transform: translateY(0);                }            }                    @keyframes floating {                0% {                    opacity: 1;                    transform: translateY(0px);                }                50% {                    transform: translateY(-10px);                }                100% {                    opacity: 1;                    transform: translateY(0px);                }            }                    @keyframes slideUp {                0% {                    opacity: 0;                    transform: translateY(30px);                }                100% {                    opacity: 1;                    transform: inherit;                }            }                    @keyframes lightSpeedRight {              from {                transform: translate3d(50%, 0, 0) skewX(-20deg);                opacity: 0;              }              60% {                transform: skewX(10deg);                opacity: 1;              }              80% {                transform: skewX(-2deg);              }              to {                opacity: 1;                transform: translate3d(0, 0, 0);              }            }                    @keyframes wind {                0% {                    transform: rotate( 0deg );                }                25% {                    transform: rotate( 1deg );                }                75% {                    transform: rotate( -1deg );                }            }                    @keyframes heartbeat {                0% {                    transform: scale(1);                }                10% {                    transform: scale(1.1);                }                30% {                    transform: scale(1);                }                40% {                    transform: scale(1);                }                50% {                    transform: scale(1.1);                }                60% {                    transform: scale(1);                }                100% {                    transform: scale(1);                }            }        </style><g id="freepik--background-complete--inject-2" style="transform-origin: 253.275px 240.055px 0px;" class="animable animator-active"><path d="M407.5,145.08,388.14,145a4.81,4.81,0,0,0-4.73,4.89v3.51a4.81,4.81,0,0,1-4.72,4.9l-37.75-.18a4.81,4.81,0,0,1-4.68-4.93v-3.52a4.82,4.82,0,0,0-4.68-4.94l-6.81,0-16.95-.07a15.24,15.24,0,0,0-15.31,15.17l-1,244.41a15.23,15.23,0,0,0,15.17,15.3l99.68.46a15.24,15.24,0,0,0,15.31-15.17l1-244.41A15.23,15.23,0,0,0,407.5,145.08Z" style="fill: rgb(245, 245, 245); transform-origin: 357.092px 282.33px 0px;" id="elp5vyrue6q7" class="animable"></path><path d="M394.09,387.36,320,387c-.76,0-1.38-.84-1.38-1.87l.08-19.39c0-1,.63-1.86,1.4-1.85l74.12.34c.77,0,1.39.84,1.39,1.86l-.09,19.4C395.48,386.53,394.85,387.36,394.09,387.36Z" style="fill: rgb(224, 224, 224); transform-origin: 357.115px 375.625px 0px;" id="elzz8e0le2ua" class="animable"></path><path d="M340.46,377.28l.23-.47a2.72,2.72,0,0,0,1.83.71c1,0,1.49-.45,1.5-1,0-1.6-3.42-.63-3.41-2.78,0-.86.64-1.59,2.05-1.59a3.12,3.12,0,0,1,1.72.52l-.2.49a2.78,2.78,0,0,0-1.52-.48c-1,0-1.47.46-1.47,1,0,1.6,3.41.65,3.4,2.77,0,.85-.65,1.58-2.07,1.57A2.9,2.9,0,0,1,340.46,377.28Z" style="fill: rgb(250, 250, 250); transform-origin: 342.525px 375.086px 0px;" id="el8lab9sx5tx6" class="animable"></path><path d="M345.89,372.2h.59l0,5.81h-.59Z" style="fill: rgb(250, 250, 250); transform-origin: 346.186px 375.105px 0px;" id="eljndqyuvbwt" class="animable"></path><path d="M352.93,372.23l0,5.81h-.49l-3.55-4.73,0,4.71h-.58l0-5.81h.48l3.56,4.73,0-4.71Z" style="fill: rgb(250, 250, 250); transform-origin: 350.619px 375.125px 0px;" id="el7bevotdl6a" class="animable"></path><path d="M358.64,375.16h.57v2.22a3,3,0,0,1-2,.73,3,3,0,0,1,0-5.91,2.66,2.66,0,0,1,2.06.85l-.37.39a2.18,2.18,0,0,0-1.67-.69,2.41,2.41,0,0,0,0,4.81,2.37,2.37,0,0,0,1.46-.44Z" style="fill: rgb(250, 250, 250); transform-origin: 356.998px 375.152px 0px;" id="el8qa78ecw1q2" class="animable"></path><path d="M362.9,375.6v-3.32h.59v3.3c0,1.38.61,2,1.69,2s1.7-.63,1.71-2v-3.31h.58l0,3.33c0,1.66-.87,2.52-2.29,2.52S362.89,377.27,362.9,375.6Z" style="fill: rgb(250, 250, 250); transform-origin: 365.184px 375.195px 0px;" id="ela71xm4fws8" class="animable"></path><path d="M373.59,374.32c0,1.23-.87,2-2.28,2h-1.49v1.84h-.59l0-5.81h2.08C372.74,372.32,373.59,373.07,373.59,374.32Zm-.59,0c0-.93-.58-1.46-1.69-1.46h-1.48v2.9h1.48C372.41,375.76,373,375.23,373,374.31Z" style="fill: rgb(250, 250, 250); transform-origin: 371.41px 375.256px 0px;" id="elcumbe0tp2gw" class="animable"></path><g id="elfdpxnxirkvt"><rect x="309" y="216.85" width="25.72" height="4.72" style="fill: rgb(224, 224, 224); transform-origin: 321.86px 219.21px 0px; transform: rotate(0.26deg);" class="animable" id="el4mtfaxxmpgn"></rect></g><path d="M410.15,245.86a2.4,2.4,0,0,0,.58-.14,1.55,1.55,0,0,0,1-1.34c0-1.6,0-3.92,0-6.89v-6.38a1.94,1.94,0,0,0-.28-1.31,1.46,1.46,0,0,0-1.18-.61h-1.57l-14.44,0-83.65-.31a1.36,1.36,0,0,0-1.1.56,2,2,0,0,0-.26,1.3c0,1,0,2,0,3q0,3,0,6c0,1,0,2,0,3a9.1,9.1,0,0,0,0,1.41,1.38,1.38,0,0,0,.78.9,1.55,1.55,0,0,0,.62.1h2.19l2.9,0,22.21.12,37.6.23,25.35.2,6.89.08,1.8,0,.61,0s-.21,0-.61,0l-1.8,0-6.89,0-25.35,0-37.6-.11-22.21-.09H310.6a2.2,2.2,0,0,1-.82-.15,1.89,1.89,0,0,1-1.08-1.24,2.85,2.85,0,0,1-.06-.8v-.74c0-1,0-2,0-3,0-2,0-4,0-6,0-1,0-2,0-3a7.59,7.59,0,0,1,0-.8,1.86,1.86,0,0,1,.33-.81,1.88,1.88,0,0,1,1.53-.77l83.64.46,14.44.11h1.57a1.77,1.77,0,0,1,1.4.73,2.18,2.18,0,0,1,.32,1.47c0,.48,0,.94,0,1.4,0,1.82,0,3.48-.05,5,0,3-.06,5.3-.08,6.9a1.63,1.63,0,0,1-1.06,1.38A1.16,1.16,0,0,1,410.15,245.86Z" style="fill: rgb(224, 224, 224); transform-origin: 360.26px 237.064px 0px;" id="el7buxg89obv" class="animable"></path><g id="el6bc7cvif42"><rect x="315.9" y="235.04" width="47.04" height="4.41" style="fill: rgb(224, 224, 224); transform-origin: 339.42px 237.245px 0px; transform: rotate(0.26deg);" class="animable" id="el9nx7uqv93fm"></rect></g><g id="elj6a0kyisl4r"><rect x="308.82" y="259.91" width="25.72" height="4.72" style="fill: rgb(224, 224, 224); transform-origin: 321.68px 262.27px 0px; transform: rotate(0.26deg);" class="animable" id="eltr6750vnyvf"></rect></g><path d="M409.49,288.92a4.87,4.87,0,0,0,.59-.11,2.1,2.1,0,0,0,1.27-1.13,2.69,2.69,0,0,0,.17-1.27c0-.49,0-1,0-1.59V274.5a2.16,2.16,0,0,0-.3-1.32,2,2,0,0,0-1.08-.84,6.17,6.17,0,0,0-1.51-.09l-14.4,0-83.35-.3a1.82,1.82,0,0,0-1.82,1.6c0,1,0,2,0,3,0,2,0,4,0,6,0,1,0,2,0,3a6.85,6.85,0,0,0,.06,1.39,1.88,1.88,0,0,0,.73,1,2,2,0,0,0,1.25.32h4.34l22.13.12,37.47.23,25.27.2,6.86.08,1.79,0,.61,0s-.21,0-.61,0l-1.79,0-6.87,0L375,289l-37.47-.12-22.13-.09H311a2.46,2.46,0,0,1-1.53-.41,2.33,2.33,0,0,1-.93-1.31,6.81,6.81,0,0,1-.09-1.53c0-1,0-2,0-3q0-3,0-6c0-1,0-2,0-3.06a2.36,2.36,0,0,1,2.34-2.07l83.35.47,14.4.1a6.15,6.15,0,0,1,1.59.11,2.21,2.21,0,0,1,1.23,1,2.41,2.41,0,0,1,.32,1.46c0,.47,0,.94,0,1.39,0,1.82,0,3.47,0,5s0,2.81,0,4c0,.57,0,1.1,0,1.59a2.74,2.74,0,0,1-.21,1.31,2.13,2.13,0,0,1-1.34,1.14A1.58,1.58,0,0,1,409.49,288.92Z" style="fill: rgb(224, 224, 224); transform-origin: 360.066px 280.205px 0px;" id="ellufk4b5guyg" class="animable"></path><g id="eluxts4ihs5i"><rect x="308.63" y="304.82" width="25.72" height="4.72" style="fill: rgb(224, 224, 224); transform-origin: 321.49px 307.18px 0px; transform: rotate(0.26deg);" class="animable" id="el08fur2vq03c3"></rect></g><path d="M409.3,333.83a2.38,2.38,0,0,0,.59-.11,2.1,2.1,0,0,0,1.27-1.13,2.67,2.67,0,0,0,.17-1.27c0-.48,0-1,0-1.59V319.41a2.17,2.17,0,0,0-.3-1.32,2,2,0,0,0-1.08-.84,6.19,6.19,0,0,0-1.51-.08l-14.4,0-83.35-.31a1.83,1.83,0,0,0-1.82,1.61c0,.95,0,2,0,3q0,3,0,6c0,1,0,2,0,3a7,7,0,0,0,.06,1.4,1.89,1.89,0,0,0,.73,1,2,2,0,0,0,1.25.32h4.34l22.13.12,37.47.23,25.26.2,6.87.08,1.79,0,.61,0-.61,0-1.79,0H400l-25.26,0-37.47-.12-22.13-.09h-4.35a2.58,2.58,0,0,1-1.53-.41,2.36,2.36,0,0,1-.93-1.32,6.78,6.78,0,0,1-.09-1.53c0-1,0-2,0-3,0-2,0-4,0-6,0-1,0-2,0-3.05a2.35,2.35,0,0,1,2.34-2.07l83.35.46,14.4.1A6.62,6.62,0,0,1,410,317a2.3,2.3,0,0,1,1.23,1,2.42,2.42,0,0,1,.32,1.47c0,.47,0,.93,0,1.39,0,1.81,0,3.47,0,5s0,2.81,0,4c0,.58,0,1.11,0,1.59a2.74,2.74,0,0,1-.21,1.31,2.07,2.07,0,0,1-1.34,1.14A1.58,1.58,0,0,1,409.3,333.83Z" style="fill: rgb(224, 224, 224); transform-origin: 359.896px 325.07px 0px;" id="el3fy5udt1b44" class="animable"></path><g id="elf4i89glvo6t"><rect x="315.72" y="278.11" width="47.04" height="4.41" style="fill: rgb(224, 224, 224); transform-origin: 339.24px 280.315px 0px; transform: rotate(0.26deg);" class="animable" id="ela205kkqyxsa"></rect></g><path d="M320,325.67a2.06,2.06,0,1,1-2-2.2A2.12,2.12,0,0,1,320,325.67Z" style="fill: rgb(224, 224, 224); transform-origin: 317.943px 325.529px 0px;" id="eln8ag80ivfwk" class="animable"></path><path d="M326.38,325.7a2.06,2.06,0,1,1-2.05-2.2A2.13,2.13,0,0,1,326.38,325.7Z" style="fill: rgb(224, 224, 224); transform-origin: 324.322px 325.561px 0px;" id="ely8f6w5c074" class="animable"></path><path d="M332.75,325.73a2.06,2.06,0,1,1-2.05-2.2A2.12,2.12,0,0,1,332.75,325.73Z" style="fill: rgb(224, 224, 224); transform-origin: 330.693px 325.592px 0px;" id="elbqmqtqpvai9" class="animable"></path><path d="M339.12,325.76a2.06,2.06,0,1,1-2-2.2A2.12,2.12,0,0,1,339.12,325.76Z" style="fill: rgb(224, 224, 224); transform-origin: 337.064px 325.619px 0px;" id="elid0wt0s1pf" class="animable"></path><path d="M345.5,325.79a2.06,2.06,0,1,1-2.05-2.2A2.13,2.13,0,0,1,345.5,325.79Z" style="fill: rgb(224, 224, 224); transform-origin: 343.443px 325.65px 0px;" id="elyd1delmzjqb" class="animable"></path><path d="M351.87,325.82a2.06,2.06,0,1,1-2.05-2.21A2.13,2.13,0,0,1,351.87,325.82Z" style="fill: rgb(224, 224, 224); transform-origin: 349.814px 325.67px 0px;" id="elrvw7ulmvmp" class="animable"></path><path d="M358.24,325.85a2.06,2.06,0,1,1-2.05-2.21A2.12,2.12,0,0,1,358.24,325.85Z" style="fill: rgb(224, 224, 224); transform-origin: 356.184px 325.701px 0px;" id="elwhy3muymxmp" class="animable"></path><path d="M364.61,325.88a2.06,2.06,0,1,1-4.11,0,2.06,2.06,0,1,1,4.11,0Z" style="fill: rgb(224, 224, 224); transform-origin: 362.555px 325.881px 0px;" id="el9lswxcmis4f" class="animable"></path><path d="M371,325.91a2.06,2.06,0,1,1-2.05-2.21A2.13,2.13,0,0,1,371,325.91Z" style="fill: rgb(224, 224, 224); transform-origin: 368.943px 325.76px 0px;" id="ely20t3o0ixnt" class="animable"></path><path d="M361.94,181.54a3.88,3.88,0,0,0,2.31-3.59,3.65,3.65,0,1,0-7.28,0,3.89,3.89,0,0,0,2.32,3.62c-5.6.84-5.34,6.93-5.34,6.93l13.23.06S367.48,182.38,361.94,181.54Z" style="fill: rgb(224, 224, 224); transform-origin: 360.566px 181.295px 0px;" id="elj5i1nif8waf" class="animable"></path><g id="elkc28bui165"><rect x="336.24" y="192.4" width="47.19" height="5.64" style="fill: rgb(224, 224, 224); transform-origin: 359.835px 195.22px 0px; transform: rotate(0.26deg);" class="animable" id="eldqw6yzmhqtg"></rect></g><path d="M174.9,91.33a36.29,36.29,0,0,1,6.9,6.77l8.81-1.61,5.82,13.63-7.26,5.25a36.37,36.37,0,0,1,.11,9.67l7.37,5.09-5.53,13.76-8.84-1.42a36.59,36.59,0,0,1-6.77,6.9l1.61,8.81L163.49,164l-5.25-7.26a36.37,36.37,0,0,1-9.67.11l-5.09,7.37-13.76-5.53,1.42-8.84a36.29,36.29,0,0,1-6.9-6.77l-8.82,1.61-5.81-13.63,7.26-5.25a36.37,36.37,0,0,1-.11-9.67l-7.37-5.09,5.53-13.76,8.84,1.42a36.29,36.29,0,0,1,6.77-6.9L128.92,83l13.63-5.81,5.25,7.26a36.37,36.37,0,0,1,9.67-.11L162.56,77l13.75,5.53-1.41,8.84Zm-15.33,14.75a15.91,15.91,0,1,0,8.83,20.69A15.9,15.9,0,0,0,159.57,106.08Z" style="fill: rgb(224, 224, 224); fill-rule: evenodd; transform-origin: 153.02px 120.609px 0px;" id="el2pc0fy7wdy" class="animable"></path><path d="M201.29,137.46l-19.79-.09a4.91,4.91,0,0,0-4.83,5v3.58a4.91,4.91,0,0,1-4.83,5l-38.58-.18a4.92,4.92,0,0,1-4.79-5l0-3.58a4.91,4.91,0,0,0-4.78-5l-7,0L99.41,137a15.55,15.55,0,0,0-15.64,15.47L82.71,401.57a15.55,15.55,0,0,0,15.5,15.59l101.88.47a15.55,15.55,0,0,0,15.65-15.46l1-249.11A15.55,15.55,0,0,0,201.29,137.46Z" style="fill: rgb(250, 250, 250); transform-origin: 149.725px 277.314px 0px;" id="elcgx8sxfpbof" class="animable"></path><rect x="98.82" y="306.96" width="100.81" height="6.74" style="fill: rgb(224, 224, 224); transform-origin: 149.225px 310.33px 0px;" id="eldishnca1i4b" class="animable"></rect><path d="M196,333.52c0,.24-21.52.44-48.05.44s-48.06-.2-48.06-.44,21.51-.45,48.06-.45S196,333.27,196,333.52Z" style="fill: rgb(224, 224, 224); transform-origin: 147.945px 333.516px 0px;" id="el0s31p2d4ese" class="animable"></path><path d="M196,173.56c0,.24-21.52.44-48.05.44s-48.06-.2-48.06-.44,21.51-.44,48.06-.44S196,173.31,196,173.56Z" style="fill: rgb(224, 224, 224); transform-origin: 147.945px 173.561px 0px;" id="elmbs974jlkn" class="animable"></path><path d="M196,345.79c0,.25-21.52.44-48.05.44s-48.06-.19-48.06-.44,21.51-.44,48.06-.44S196,345.55,196,345.79Z" style="fill: rgb(224, 224, 224); transform-origin: 147.945px 345.791px 0px;" id="elmju3n2pjmai" class="animable"></path><path d="M196,358.07c0,.24-21.52.44-48.05.44s-48.06-.2-48.06-.44,21.51-.44,48.06-.44S196,357.82,196,358.07Z" style="fill: rgb(224, 224, 224); transform-origin: 147.945px 358.07px 0px;" id="elui07icz9hcl" class="animable"></path><path d="M196,370.34c0,.25-21.52.44-48.05.44s-48.06-.19-48.06-.44,21.51-.44,48.06-.44S196,370.1,196,370.34Z" style="fill: rgb(224, 224, 224); transform-origin: 147.945px 370.34px 0px;" id="el065ev6n8lzk6" class="animable"></path><path d="M196,382.62c0,.24-21.52.44-48.05.44s-48.06-.2-48.06-.44,21.51-.44,48.06-.44S196,382.37,196,382.62Z" style="fill: rgb(224, 224, 224); transform-origin: 147.945px 382.619px 0px;" id="eljxbh30f2z3p" class="animable"></path><path d="M197.4,396.54c0,.24-21.51.44-48.05.44s-48.06-.2-48.06-.44,21.51-.44,48.06-.44S197.4,396.29,197.4,396.54Z" style="fill: rgb(224, 224, 224); transform-origin: 149.344px 396.541px 0px;" id="elx3zlvfhcltc" class="animable"></path><rect x="99.92" y="187.56" width="101.06" height="97.78" style="fill: rgb(235, 235, 235); transform-origin: 150.45px 236.45px 0px;" id="eleufngxnt4hq" class="animable"></rect><polygon points="107.75 276.97 135.71 226.65 158.58 258.81 172.47 241.73 193.14 276.97 107.75 276.97" style="fill: rgb(224, 224, 224); transform-origin: 150.445px 251.81px 0px;" id="elsolze2tt65s" class="animable"></polygon><path d="M168.32,216.86a7.28,7.28,0,1,1-7.28-7.27A7.28,7.28,0,0,1,168.32,216.86Z" style="fill: rgb(224, 224, 224); transform-origin: 161.041px 216.869px 0px;" id="el8a75cf5a0la" class="animable"></path><path d="M193.14,277.24s0-.14,0-.4,0-.67,0-1.14c0-1,0-2.51,0-4.4,0-3.88-.06-9.49-.11-16.61-.05-14.28-.12-34.62-.21-59l.41.42-85.38.06c-.12.11.9-.9.47-.46v22c0,7.18,0,14.22,0,21.07,0,13.69,0,26.64,0,38.55l-.42-.42,61.74.21,17.42.11,4.62.05,1.19,0,.42,0a2.21,2.21,0,0,1-.37,0l-1.15,0-4.54,0-17.32.11-62,.22h-.42v-.42c0-11.91,0-24.86,0-38.55,0-6.85,0-13.89,0-21.07v-22c-.43.42.58-.61.49-.5l85.38.07h.42v.41c-.09,24.53-.16,45-.21,59.3,0,7.08-.09,12.66-.11,16.52,0,1.85,0,3.3-.05,4.32,0,.45,0,.81,0,1.09A1.44,1.44,0,0,1,193.14,277.24Z" style="fill: rgb(224, 224, 224); transform-origin: 150.582px 236.336px 0px;" id="elyf11qb1fj9l" class="animable"></path><rect x="305.69" y="60.11" width="118.15" height="30.86" rx="3.93" style="fill: rgb(224, 224, 224); transform-origin: 364.765px 75.54px 0px;" id="elhmectikiyc" class="animable"></rect><path d="M324.51,76.46a3.86,3.86,0,0,0,2.31-3.58,3.64,3.64,0,1,0-7.27,0,3.85,3.85,0,0,0,2.31,3.62,5.83,5.83,0,0,0-4.92,4.24A8.3,8.3,0,0,0,322,83.42h2.24a8.26,8.26,0,0,0,5.12-2.75A5.73,5.73,0,0,0,324.51,76.46Z" style="fill: rgb(250, 250, 250); transform-origin: 323.15px 76.2344px 0px;" id="elhk0tv8eechq" class="animable"></path><rect x="339.1" y="68.13" width="29.09" height="2.18" style="fill: rgb(250, 250, 250); transform-origin: 353.645px 69.22px 0px;" id="elhwd64cvisi5" class="animable"></rect><rect x="339.1" y="80.46" width="50.96" height="2.18" style="fill: rgb(250, 250, 250); transform-origin: 364.58px 81.55px 0px;" id="elw5y9dsvgt9p" class="animable"></rect><rect x="339.1" y="74.14" width="73.85" height="2.18" style="fill: rgb(250, 250, 250); transform-origin: 376.025px 75.23px 0px;" id="elfk7j0ljcz7c" class="animable"></rect></g><g id="freepik--Floor--inject-2" style="transform-origin: 243.711px 428.234px 0px;" class="animable"><path d="M447.71,428.21c0,.14-91.36.26-204,.26s-204-.12-204-.26S131,428,243.68,428,447.71,428.06,447.71,428.21Z" style="fill: rgb(38, 50, 56); transform-origin: 243.711px 428.234px 0px;" id="elojx1x9xt03n" class="animable"></path></g><g id="freepik--Plants--inject-2" style="transform-origin: 416.41px 365.584px 0px;" class="animable"><path d="M419.86,409.57c-.68-2.67,1.08-5.33,3.05-7.25s4.32-3.64,5.35-6.19c1.67-4.13-.51-9.5,2.32-12.93,1.67-2,4.64-2.69,6.12-4.85a11,11,0,0,0,1.35-3.87,39.32,39.32,0,0,1,9.9-18.27A34.14,34.14,0,0,1,444,373.85c-1.15,2.17-2.56,4.27-2.95,6.69-.64,3.93,1.54,8,.55,11.85-1.13,4.42-6.11,7.34-6.37,11.89-.22,3.84,3.11,7.23,2.84,11.07a10.45,10.45,0,0,1-1.74,4.55c-3,4.93-7.39,8.31-14,8.16l-8.11.24Z" style="fill: #4d4da9; transform-origin: 431.104px 392.256px 0px;" id="elxchbuywvyb" class="animable"></path><g id="elvfirnavorp7"><g style="opacity: 0.3; transform-origin: 431.104px 392.256px 0px;" class="animable" id="el0fphp5gk9oxj"><path d="M419.86,409.57c-.68-2.67,1.08-5.33,3.05-7.25s4.32-3.64,5.35-6.19c1.67-4.13-.51-9.5,2.32-12.93,1.67-2,4.64-2.69,6.12-4.85a11,11,0,0,0,1.35-3.87,39.32,39.32,0,0,1,9.9-18.27A34.14,34.14,0,0,1,444,373.85c-1.15,2.17-2.56,4.27-2.95,6.69-.64,3.93,1.54,8,.55,11.85-1.13,4.42-6.11,7.34-6.37,11.89-.22,3.84,3.11,7.23,2.84,11.07a10.45,10.45,0,0,1-1.74,4.55c-3,4.93-7.39,8.31-14,8.16l-8.11.24Z" id="elsjx94dct68" style="transform-origin: 431.104px 392.256px 0px;" class="animable"></path></g></g><path d="M412.58,428.5a6.67,6.67,0,0,1-2.23-.06,13.46,13.46,0,0,1-2.63-.68,11.21,11.21,0,0,1-3.25-1.8,4.6,4.6,0,0,1-1.33-1.79,8.35,8.35,0,0,1-.36-2.43,24,24,0,0,0-.18-2.62,7.35,7.35,0,0,0-1-2.61c-.95-1.68-2.53-3.28-3-5.57s-.13-4.67.26-7.1.77-5.08-.14-7.62-2.62-4.83-3.49-7.7-.44-6-.61-9a12.2,12.2,0,0,0-1-4.51c-.65-1.44-1.55-2.8-2.25-4.31-1.43-3.06-1.66-6.53-2-9.92-.19-1.71-.37-3.44-.56-5.18a25.25,25.25,0,0,0-.87-5.19,45.39,45.39,0,0,0-1.91-5,16.88,16.88,0,0,1-.92-2.62,24.49,24.49,0,0,1-.25-2.79,32.94,32.94,0,0,1,.25-5.61c.23-1.87.58-3.73.79-5.6l0-.32,0-.38.33.17a12.46,12.46,0,0,1,4.34,3.71,19.64,19.64,0,0,1,2.66,5c1.33,3.49,1.8,7.14,2.46,10.62A29,29,0,0,0,399,357.3c.88,1.45,1.94,2.77,2.88,4.18a11.55,11.55,0,0,1,2,4.63c.46,3.44-1.45,6.44-1.07,9.48a10.33,10.33,0,0,0,1.46,4.21c.72,1.3,1.58,2.51,2.4,3.72a24.19,24.19,0,0,1,2.15,3.75,11.76,11.76,0,0,1,1,4.07c.19,2.73-.22,5.32,0,7.77a18,18,0,0,0,2,6.68c1,2,2.05,3.81,3,5.56.45.88.87,1.73,1.21,2.59a13.31,13.31,0,0,1,.7,2.57,16.29,16.29,0,0,1,0,4.62,11.74,11.74,0,0,1-2.35,5.89,6.77,6.77,0,0,1-.66.71,3.28,3.28,0,0,1-.54.45c-.3.22-.46.32-.46.32a10.53,10.53,0,0,0,1.58-1.54,11.84,11.84,0,0,0,2.23-5.85,16,16,0,0,0-.08-4.56,12,12,0,0,0-.7-2.51,26.75,26.75,0,0,0-1.22-2.55c-.91-1.74-2-3.55-3-5.56a18.26,18.26,0,0,1-2-6.79c-.2-2.5.19-5.1,0-7.77a11.32,11.32,0,0,0-.95-3.93,24,24,0,0,0-2.13-3.68c-.81-1.2-1.68-2.42-2.43-3.74a10.89,10.89,0,0,1-1.52-4.39c-.38-3.24,1.52-6.26,1.05-9.45a11,11,0,0,0-1.92-4.43c-.92-1.38-2-2.71-2.9-4.19a29.34,29.34,0,0,1-3.35-10c-.67-3.51-1.14-7.12-2.45-10.54a19.54,19.54,0,0,0-2.58-4.83,12.08,12.08,0,0,0-4.16-3.55l.37-.21,0,.33c-.22,1.9-.57,3.75-.8,5.6a33,33,0,0,0-.24,5.52,26,26,0,0,0,.23,2.71,15.29,15.29,0,0,0,.9,2.53,46.61,46.61,0,0,1,1.92,5.09,24.81,24.81,0,0,1,.88,5.27c.19,1.75.37,3.48.55,5.19.37,3.41.6,6.81,2,9.77.68,1.47,1.58,2.83,2.24,4.32a12.4,12.4,0,0,1,1.06,4.67c.16,3.13-.26,6.18.57,9s2.58,5.07,3.46,7.69.53,5.39.13,7.81-.81,4.81-.3,7,2,3.76,2.95,5.49a7.58,7.58,0,0,1,1,2.72,22.36,22.36,0,0,1,.15,2.66,8.33,8.33,0,0,0,.34,2.35,4.43,4.43,0,0,0,1.24,1.72,11.1,11.1,0,0,0,3.17,1.8,12.93,12.93,0,0,0,2.59.72,9.57,9.57,0,0,0,1.65.17Z" style="fill: rgb(38, 50, 56); transform-origin: 400.863px 378.328px 0px;" id="el0r0acxk4xpdi" class="animable"></path><path d="M387.51,332.86a1,1,0,0,1,.07.25c.05.19.11.43.18.73.16.64.34,1.6.64,2.81s1,2.56,1.66,4.24,1.29,3.59,1.89,5.76,1.14,4.57,1.7,7.14a30.29,30.29,0,0,0,2.55,7.94c.66,1.32,1.4,2.65,2,4.11a19.25,19.25,0,0,1,1.14,4.66,96.74,96.74,0,0,0,1.7,9.82c1.58,6.65,3.1,13,4.47,18.75s2.69,10.93,3.76,15.3,1.89,7.85,2.48,10.33c.28,1.19.5,2.13.65,2.81l.16.73a1.27,1.27,0,0,1,0,.26.91.91,0,0,1-.09-.24l-.21-.73c-.18-.67-.43-1.6-.74-2.78l-2.65-10.29L405,399.19l-4.52-18.76a92.52,92.52,0,0,1-1.69-9.86,18.61,18.61,0,0,0-1.1-4.54c-.56-1.43-1.29-2.76-2-4.09a30.29,30.29,0,0,1-2.54-8.05c-.54-2.59-1.05-5-1.63-7.14s-1.2-4.09-1.81-5.76-1.3-3.05-1.59-4.29-.42-2.19-.54-2.84c-.05-.3-.09-.55-.13-.74A1,1,0,0,1,387.51,332.86Z" style="fill: rgb(38, 50, 56); transform-origin: 400.008px 380.68px 0px;" id="elcx5mewl4wa" class="animable"></path><path d="M411.15,428.52c-5.28-3.18-6.75-12.74-4.5-18.48s6.13-11,6.76-17.1c.49-4.7-1-9.55.1-14.15,1.51-6.21,7.61-11,7.58-17.38,0-3.58-2-7-1.86-10.55.22-4.39,3.61-7.86,5.72-11.71,3.24-5.91,3.49-12.91,4.62-19.55s3.7-13.73,9.6-17c.84,5.64,2.3,9.51,1.79,17.15-.18,2.74-3.4,8-3.86,14-.28,3.6-.48,7.19-.72,10.79s-.48,7.06-1.76,10.33c-1,2.5-2.53,4.77-3.26,7.36-1.37,4.86.36,10.15-.75,15.08-.94,4.18-3.86,7.76-4.47,12-.87,6,3,12.17.95,17.84-1,2.82-3.33,5.07-4,8-.53,2.26,0,4.65-.46,6.92-.77,3.65-7.76,6.45-11.48,6.21" style="fill: #4d4da9; transform-origin: 423.348px 365.561px 0px;" id="el8qr8o0encoy" class="animable"></path><path d="M437.68,308.23a1.44,1.44,0,0,1,0,.31c0,.24-.08.55-.13.93-.12.81-.27,2-.55,3.55s-1.12,3.3-1.77,5.41-1.37,4.52-2,7.24-1.14,5.72-1.69,8.95a37.79,37.79,0,0,1-2.77,10.11c-.76,1.69-1.6,3.38-2.24,5.18a23.31,23.31,0,0,0-1.14,5.72A116.79,116.79,0,0,1,423.76,368c-1.67,8.35-3.26,16.3-4.7,23.53s-2.9,13.7-4.05,19.17-2.11,9.83-2.78,12.91c-.33,1.49-.59,2.67-.78,3.5-.09.38-.16.68-.21.91a1.31,1.31,0,0,1-.09.31,1.11,1.11,0,0,1,0-.32c0-.23.09-.54.16-.92.16-.84.39-2,.68-3.52.63-3.09,1.52-7.51,2.62-12.95s2.46-12,3.94-19.19,3-15.18,4.66-23.52a118,118,0,0,0,1.63-12.28,23.14,23.14,0,0,1,1.19-5.83c.65-1.84,1.51-3.54,2.26-5.21a37.61,37.61,0,0,0,2.78-10c.57-3.22,1.11-6.23,1.76-9a73.61,73.61,0,0,1,2.07-7.25c.68-2.12,1.52-3.85,1.84-5.36s.49-2.72.65-3.53c.07-.38.13-.68.17-.91A1.87,1.87,0,0,1,437.68,308.23Z" style="fill: rgb(38, 50, 56); transform-origin: 424.412px 368.279px 0px;" id="elgsrjijh35sw" class="animable"></path></g><g id="freepik--Gears--inject-2" style="transform-origin: 284.395px 195.311px 0px;" class="animable"><path d="M237.06,74.52A20.84,20.84,0,0,1,241,78.37l5-.91,3.32,7.78-4.15,3a20.8,20.8,0,0,1,.07,5.52l4.2,2.9-3.15,7.85-5-.81a20.6,20.6,0,0,1-3.86,3.94l.92,5L230.55,116l-3-4.14a20.73,20.73,0,0,1-5.51.06l-2.91,4.2L211.28,113l.81-5a20.84,20.84,0,0,1-3.94-3.85l-5,.91-3.32-7.78,4.15-3a20.8,20.8,0,0,1-.07-5.52l-4.2-2.9,3.15-7.85,5,.81a20.6,20.6,0,0,1,3.86-3.94l-.92-5,7.78-3.32,3,4.14a20.73,20.73,0,0,1,5.51-.06l2.91-4.2,7.85,3.15-.81,5Zm-8.75,8.41a9.07,9.07,0,1,0,5,11.81A9.07,9.07,0,0,0,228.31,82.93Z" style="fill: none; transform-origin: 224.576px 91.2813px 0px;" id="el55b6rkvs8z" class="animable"></path><path d="M228.31,82.93a6.88,6.88,0,0,1,2,1,9,9,0,0,1,3.53,5,9.15,9.15,0,0,1,.19,4.26,9.3,9.3,0,0,1-2.17,4.4,8.8,8.8,0,0,1-2.05,1.72,8.91,8.91,0,0,1-2.57,1.1A9.25,9.25,0,0,1,217,96.27a8.77,8.77,0,0,1-1.09-2.57,9,9,0,0,1-.29-2.66,9.2,9.2,0,0,1,4.56-7.63,9.05,9.05,0,0,1,6-1.14,6.94,6.94,0,0,1,2.14.66,21.84,21.84,0,0,0-2.17-.46,9.08,9.08,0,0,0-5.76,1.26,8.87,8.87,0,0,0-4.27,7.32,8,8,0,0,0,.29,2.52,8.14,8.14,0,0,0,1,2.43,8.81,8.81,0,0,0,9.67,3.89,8.85,8.85,0,0,0,4.39-2.65,9,9,0,0,0,2.11-4.16,8.82,8.82,0,0,0-.13-4.08,9.07,9.07,0,0,0-3.28-4.9A21.75,21.75,0,0,0,228.31,82.93Z" style="fill: rgb(38, 50, 56); transform-origin: 224.904px 91.4356px 0px;" id="elcy74lgayks5" class="animable"></path><path d="M237.06,74.52a1.29,1.29,0,0,1,0-.32c0-.24.08-.55.13-1q.19-1.32.57-3.78l.05.09L230,66.44l.16,0-2.89,4.22-.05.07h-.1a21,21,0,0,0-5.47.08h-.1l-.06-.08-3-4.13.22.06L210.9,70l.12-.23c.29,1.56.61,3.27.93,5l0,.13-.11.08a20.48,20.48,0,0,0-3.81,3.9L208,79l-.14,0-5-.8.25-.15-3.14,7.86-.09-.29,4.21,2.9.12.08,0,.15a20.79,20.79,0,0,0,.06,5.45l0,.15-.13.09-4.14,3,.09-.31,3.32,7.78-.28-.15,5-.92.15,0,.1.13a20.29,20.29,0,0,0,3.88,3.8h0a2.47,2.47,0,1,0,.1.25h0V108l0,.08,0,.16-.05.32-.1.63-.21,1.27c-.13.84-.27,1.68-.4,2.51l-.16-.28,7.85,3.16-.31.09,2.91-4.21.08-.12.16,0a20.7,20.7,0,0,0,5.45-.06l.15,0,.09.12,3,4.15-.3-.09,7.78-3.31-.14.27c-.31-1.71-.61-3.39-.91-5l0-.14.11-.08a20.66,20.66,0,0,0,3.82-3.89l.08-.11.14,0,5,.82-.23.13c1.11-2.76,2.16-5.36,3.17-7.84l.07.24-4.2-2.92-.09-.06v-.11a20.77,20.77,0,0,0,0-5.47l0-.11.08-.06,4.16-3,0,.19c-1.28-3-2.36-5.6-3.29-7.8l.13.07-5,.89h0l0,0a21.61,21.61,0,0,0-2.83-3l-.78-.66a1.84,1.84,0,0,1-.26-.22,1.64,1.64,0,0,1,.28.18c.19.14.46.34.81.64a19.71,19.71,0,0,1,2.91,3l-.08,0,5-1,.09,0,0,.09,3.35,7.77,0,.11-.1.07-4.13,3,.06-.16a20.55,20.55,0,0,1,.08,5.56l-.08-.18,4.21,2.9.13.09-.05.15c-1,2.48-2,5.09-3.14,7.85l-.07.16-.17,0-5.05-.8.22-.09a21.31,21.31,0,0,1-3.9,4l.09-.23c.3,1.65.61,3.32.92,5l0,.19-.18.07-7.77,3.33-.19.08-.11-.16-3-4.14.24.1a20.84,20.84,0,0,1-5.58.06l.24-.1-2.91,4.2-.11.17-.19-.08-7.86-3.15-.19-.07,0-.21c.14-.84.27-1.67.41-2.52l.2-1.26.1-.64.05-.31,0-.16v-.14h0c.21.5.06.14.11.25h0a21.06,21.06,0,0,1-4-3.9l.25.09-5,.92-.21,0-.08-.19-3.31-7.79-.08-.18.16-.12,4.15-3-.1.24a20.92,20.92,0,0,1-.06-5.58l.1.24L199.54,86l-.16-.11.08-.18c1.09-2.73,2.17-5.39,3.16-7.85l.07-.17.18,0,5,.82-.22.08a21.05,21.05,0,0,1,3.91-4l-.08.21c-.32-1.76-.63-3.48-.91-5l0-.16.15-.06,7.79-3.3.14-.06.08.12,3,4.15-.17-.07a20.75,20.75,0,0,1,5.56,0l-.14.06,2.92-4.19.06-.09.1,0,7.83,3.2.06,0v.06c-.28,1.62-.49,2.87-.64,3.74q-.12.61-.18,1A2.45,2.45,0,0,1,237.06,74.52Z" style="fill: rgb(38, 50, 56); transform-origin: 224.619px 91.334px 0px;" id="eltgqxs2k402" class="animable"></path><path d="M353.47,271.49a26.18,26.18,0,0,1,5,4.88l6.36-1.16,4.2,9.84-5.24,3.79a26.64,26.64,0,0,1,.08,7l5.31,3.68-4,9.93-6.38-1a25.89,25.89,0,0,1-4.88,5l1.16,6.37-9.84,4.2-3.79-5.24a26.21,26.21,0,0,1-7,.07l-3.68,5.32-9.93-4,1-6.38a25.94,25.94,0,0,1-5-4.88L310.54,310l-4.2-9.84,5.24-3.79a26.29,26.29,0,0,1-.07-7l-5.32-3.67,4-9.93,6.38,1a26.18,26.18,0,0,1,4.88-5l-1.16-6.36,9.84-4.2,3.79,5.24a26.29,26.29,0,0,1,7-.08l3.67-5.31,9.93,4-1,6.39Zm-11.06,10.64a11.48,11.48,0,1,0,6.37,14.93A11.47,11.47,0,0,0,342.41,282.13Z" style="fill: rgb(250, 250, 250); fill-rule: evenodd; transform-origin: 337.686px 292.615px 0px;" id="el4uyq2p1rbpk" class="animable"></path><path d="M353.47,271.49a26.18,26.18,0,0,1,5,4.88l6.36-1.16,4.2,9.84-5.24,3.79a26.64,26.64,0,0,1,.08,7l5.31,3.68-4,9.93-6.38-1a25.89,25.89,0,0,1-4.88,5l1.16,6.37-9.84,4.2-3.79-5.24a26.21,26.21,0,0,1-7,.07l-3.68,5.32-9.93-4,1-6.38a25.94,25.94,0,0,1-5-4.88L310.54,310l-4.2-9.84,5.24-3.79a26.29,26.29,0,0,1-.07-7l-5.32-3.67,4-9.93,6.38,1a26.18,26.18,0,0,1,4.88-5l-1.16-6.36,9.84-4.2,3.79,5.24a26.29,26.29,0,0,1,7-.08l3.67-5.31,9.93,4-1,6.39Zm-11.06,10.64a11.48,11.48,0,1,0,6.37,14.93A11.47,11.47,0,0,0,342.41,282.13Z" style="fill: none; transform-origin: 337.686px 292.615px 0px;" id="eljqxz8aiijyf" class="animable"></path><path d="M342.41,282.13a9.1,9.1,0,0,1,2.52,1.3,11.4,11.4,0,0,1,4.43,6.26,11.56,11.56,0,0,1,.23,5.37,11.73,11.73,0,0,1-2.74,5.53,11.1,11.1,0,0,1-2.58,2.17,11.22,11.22,0,0,1-3.23,1.38A11.64,11.64,0,0,1,328.17,299a11.23,11.23,0,0,1-1.38-3.24,10.94,10.94,0,0,1-.36-3.34,11.68,11.68,0,0,1,1.84-5.89,11.59,11.59,0,0,1,11.42-5.18,8.94,8.94,0,0,1,2.72.81,26.1,26.1,0,0,0-2.75-.61,11.48,11.48,0,0,0-7.32,1.58,11.26,11.26,0,0,0-5.43,9.3,11.23,11.23,0,0,0,1.69,6.3,11.2,11.2,0,0,0,12.31,4.94,11.27,11.27,0,0,0,5.58-3.37A11.2,11.2,0,0,0,349,289.79a11.43,11.43,0,0,0-4.19-6.2A27.07,27.07,0,0,0,342.41,282.13Z" style="fill: rgb(38, 50, 56); transform-origin: 338.111px 292.877px 0px;" id="el1gxs0zv3vgv" class="animable"></path><path d="M353.47,271.49a3.14,3.14,0,0,1,0-.41c0-.29.1-.69.17-1.21.17-1.1.41-2.7.73-4.78l0,.09-9.95-3.94.16-.05L341,266.52l-.05.08h-.09a26.06,26.06,0,0,0-6.93.09h-.11l-.06-.08-3.8-5.23.22.06-9.83,4.22.12-.23c.36,2,.76,4.14,1.17,6.36l0,.13-.11.08a25.85,25.85,0,0,0-4.83,4.95l-.08.11-.14,0-6.38-1,.25-.14c-1.25,3.12-2.59,6.48-4,9.93l-.08-.29,5.32,3.67.12.08,0,.15a26.3,26.3,0,0,0,.08,6.91l0,.15-.12.09-5.24,3.79.09-.3,4.2,9.84-.29-.16,6.37-1.16.15,0,.1.13a26.29,26.29,0,0,0,4.93,4.83h0l.13.1,0,.15q-.51,3.21-1,6.38l-.16-.28,9.93,4-.31.09c1.24-1.79,2.46-3.56,3.68-5.31l.08-.13.16,0a26.1,26.1,0,0,0,6.9-.07l.16,0,.09.12,3.78,5.24-.3-.08,9.85-4.19-.14.26c-.4-2.16-.78-4.28-1.16-6.36l0-.14.12-.09a25.94,25.94,0,0,0,4.84-4.93l.08-.11.14,0,6.38,1-.24.14,4-9.93.07.24L363.74,296l-.09-.07v-.11a25.81,25.81,0,0,0-.06-6.93l0-.1.09-.06,5.25-3.78-.05.19c-1.62-3.82-3-7.07-4.17-9.86l.13.07-6.37,1.13h0l0,0a27.53,27.53,0,0,0-3.59-3.82c-.44-.38-.77-.65-1-.84a4,4,0,0,1-.32-.27l.35.24c.23.17.58.43,1,.81a24.74,24.74,0,0,1,3.67,3.78l-.08,0,6.36-1.2.09,0,0,.09c1.19,2.78,2.59,6,4.23,9.83l.05.11-.1.07L363.87,289l.07-.17a26.5,26.5,0,0,1,.09,7l-.08-.18,5.33,3.67.13.09-.06.14c-1.26,3.14-2.58,6.44-4,9.94l-.07.16-.17,0-6.38-1,.21-.08a26.28,26.28,0,0,1-4.92,5l.09-.23q.57,3.14,1.17,6.36l0,.19-.17.08-9.84,4.2-.18.08-.12-.16c-1.25-1.72-2.51-3.46-3.79-5.24l.24.11a26.81,26.81,0,0,1-7.05.08l.25-.11c-1.22,1.75-2.44,3.53-3.68,5.32l-.11.17-.2-.08-9.93-4-.19-.07,0-.21c.34-2.11.69-4.24,1-6.38l.1.25h0a26.41,26.41,0,0,1-5-4.92l.25.09-6.36,1.16-.21,0-.08-.19c-1.44-3.39-2.86-6.73-4.19-9.84l-.08-.19.16-.12,5.25-3.79-.11.24a26.84,26.84,0,0,1-.07-7l.1.24c-1.84-1.28-3.65-2.54-5.31-3.68l-.16-.11.07-.18c1.39-3.45,2.75-6.81,4-9.93l.07-.17.18,0,6.39,1-.22.09a26.42,26.42,0,0,1,4.93-5l-.08.21c-.4-2.22-.79-4.39-1.15-6.36l0-.17.15-.06,9.85-4.18.13-.06.09.12,3.78,5.25-.16-.07a26.62,26.62,0,0,1,7-.06l-.14.07,3.69-5.31.06-.09.1,0,9.91,4,.06,0v.07c-.35,2.06-.62,3.64-.8,4.73-.1.53-.17.93-.22,1.22Z" style="fill: rgb(38, 50, 56); transform-origin: 337.605px 292.672px 0px;" id="elm69gqua17b" class="animable"></path></g><g id="freepik--Device--inject-2" style="transform-origin: 259.365px 264.98px 0px;" class="animable"><path d="M305.42,428.21l-110.92-.07A24.16,24.16,0,0,1,170.35,404l.05-278.09a24.16,24.16,0,0,1,24.18-24.16l110.93.06A24.16,24.16,0,0,1,329.65,126l0,278.1A24.17,24.17,0,0,1,305.42,428.21Z" style="fill: rgb(38, 50, 56); transform-origin: 250px 264.98px 0px;" id="eltxgoyz9o70k" class="animable"></path><path d="M305.39,111.62H283.88a5.34,5.34,0,0,0-5.22,5.45V121a5.34,5.34,0,0,1-5.23,5.46l-41.92,0a5.36,5.36,0,0,1-5.22-5.47V117a5.35,5.35,0,0,0-5.22-5.46h-7.56l-18.83,0a16.93,16.93,0,0,0-16.93,16.92l-.05,271.45a16.91,16.91,0,0,0,16.91,16.92l110.7.07A16.94,16.94,0,0,0,322.25,400l.05-271.44A16.93,16.93,0,0,0,305.39,111.62Z" style="fill: rgb(255, 255, 255); transform-origin: 250px 264.219px 0px;" id="elib6kmemti38" class="animable"></path><path d="M217,177.76a6.47,6.47,0,0,1,.69.49l1.93,1.49.08.06-.07.08-3.89,4.55v-.21l9,9h-.32l3.84-4.21.12-.14.16.08a16.94,16.94,0,0,1,3.54,2.31,7.53,7.53,0,0,1,2.52,3.64,4.19,4.19,0,0,1,.11,1.17l0,.59-.18.57a3.66,3.66,0,0,1-.5,1.08,4.87,4.87,0,0,1-.67,1,7.11,7.11,0,0,1-4,2.46,7.67,7.67,0,0,1-4.69-.51,8.27,8.27,0,0,1-2-1.21c-.6-.5-1.1-1-1.63-1.55l-6.06-6c-1.93-1.91-3.76-3.72-5.47-5.43l-1.26-1.25a7.94,7.94,0,0,1-1.16-1.3,4.25,4.25,0,0,1-.75-3.2,6.25,6.25,0,0,1,3.34-4.36,6.72,6.72,0,0,1,4.14-.64,6.63,6.63,0,0,1,2.48.94,5.53,5.53,0,0,1,.56.41c.12.09.18.15.17.15a8,8,0,0,0-3.24-1.3,6.57,6.57,0,0,0-4,.7,5.91,5.91,0,0,0-3.1,4.16,3.89,3.89,0,0,0,.71,2.91,8.54,8.54,0,0,0,1.12,1.24l1.27,1.24,5.51,5.39,6.07,6c.53.51,1,1.07,1.61,1.52a8.28,8.28,0,0,0,1.87,1.14,7.21,7.21,0,0,0,4.38.47,6.62,6.62,0,0,0,3.73-2.28,4.56,4.56,0,0,0,.63-.9,3.41,3.41,0,0,0,.45-1l.16-.5,0-.52a3.56,3.56,0,0,0-.09-1,7,7,0,0,0-2.35-3.38,16.09,16.09,0,0,0-3.41-2.25l.28-.06-3.87,4.2-.16.17-.16-.17-8.95-9.06-.11-.1.1-.11,4-4.48v.14l-1.87-1.56A5.08,5.08,0,0,1,217,177.76Z" style="fill: rgb(38, 50, 56); transform-origin: 220.498px 189.08px 0px;" id="ellz9zeh70md" class="animable"></path><path d="M237.13,210.22a8.22,8.22,0,0,0,1.62-.32,5.37,5.37,0,0,0,3.27-3.15,5.15,5.15,0,0,0,.34-1.56c0-.55,0-1.17,0-1.79,0-1.26,0-2.63-.06-4.09,0-2.94-.08-6.29-.12-10s-.08-7.74-.13-12.09c0-1.08,0-2.19,0-3.31a9.07,9.07,0,0,0-.35-3.3,5.16,5.16,0,0,0-2.11-2.55,5.5,5.5,0,0,0-3.33-.78l-31.79.29a5.12,5.12,0,0,0-5.1,5q0,4.13,0,8.11c0,5.31.08,10.44.12,15.33,0,2.44,0,4.83,0,7.14a13,13,0,0,0,.23,3.34,5.18,5.18,0,0,0,1.75,2.59,5.25,5.25,0,0,0,2.82,1.11c1,0,2.07,0,3.07,0l5.8,0,17.5-.06h4.76l1.24,0a1.91,1.91,0,0,1,.42,0,2.24,2.24,0,0,1-.42,0l-1.24,0-4.75.09-17.51.23-5.8.07c-1,0-2,0-3.1,0a5.65,5.65,0,0,1-3.06-1.19,5.74,5.74,0,0,1-1.91-2.8,6.41,6.41,0,0,1-.24-1.74c0-.57,0-1.15,0-1.72q0-3.48-.07-7.15c-.05-4.88-.1-10-.15-15.33q0-4-.06-8.12a5.6,5.6,0,0,1,1.65-3.9,5.69,5.69,0,0,1,4-1.67l31.79-.24a6,6,0,0,1,3.59.86,5.61,5.61,0,0,1,2.28,2.79,5.31,5.31,0,0,1,.36,1.75c0,.59,0,1.14,0,1.71,0,1.12,0,2.22,0,3.31,0,4.34.05,8.39.07,12.09s0,7,0,10c0,1.47,0,2.84,0,4.1,0,.63,0,1.22,0,1.81a5.91,5.91,0,0,1-.38,1.62,5.47,5.47,0,0,1-3.43,3.17A4.5,4.5,0,0,1,237.13,210.22Z" style="fill: rgb(38, 50, 56); transform-origin: 220.645px 188.58px 0px;" id="elh05ltpnt21q" class="animable"></path><g id="ely7oou0bt14o" class=""><rect x="256.77" y="166.71" width="43.16" height="43.16" rx="5.4" style="fill: #4d4da9; transform-origin: 278.35px 188.29px 0px; transform: rotate(-0.47deg);" class="animable" id="els95jjhzj2g9"></rect></g><path d="M293.1,188.24a24.8,24.8,0,0,0-.58-3.5,14.39,14.39,0,0,0-5.33-7.78,14.17,14.17,0,0,0-6-2.59,14.42,14.42,0,0,0-7.46.7,14.16,14.16,0,0,0-6.54,5,14.14,14.14,0,0,0,.14,16.76,14.16,14.16,0,0,0,6.62,4.89,14.29,14.29,0,0,0,7.47.58,14.12,14.12,0,0,0,6-2.69,14.44,14.44,0,0,0,5.2-7.87,25.21,25.21,0,0,0,.52-3.5.82.82,0,0,1,0,.23v.69a7,7,0,0,1-.08,1.12,8.87,8.87,0,0,1-.26,1.51,13.44,13.44,0,0,1-1.53,3.91,14.56,14.56,0,0,1-17.46,6.48,13.9,13.9,0,0,1-3.73-2,13.73,13.73,0,0,1-3.14-3.09,14.6,14.6,0,0,1-.14-17.36,14.66,14.66,0,0,1,6.79-5.15,14.65,14.65,0,0,1,7.69-.67,14.6,14.6,0,0,1,9.87,6.86,13.42,13.42,0,0,1,1.59,3.88,9.2,9.2,0,0,1,.29,1.51,8.7,8.7,0,0,1,.1,1.11c0,.28,0,.51,0,.69A.87.87,0,0,1,293.1,188.24Z" style="fill: rgb(255, 255, 255); transform-origin: 278.58px 188.34px 0px;" id="elbl7f00lyo1f" class="animable"></path><path d="M293.18,187.26c0,.14-6.57.31-14.68.38s-14.67,0-14.67-.14,6.56-.31,14.67-.38S293.17,187.12,293.18,187.26Z" style="fill: rgb(255, 255, 255); transform-origin: 278.504px 187.381px 0px;" id="el3jd6l6lntlv" class="animable"></path><path d="M279.31,202.7a2.46,2.46,0,0,1,.26-.59l.82-1.65a23.85,23.85,0,0,0,1.24-2.63,30.5,30.5,0,0,0,1.34-3.61,22.91,22.91,0,0,0,1.13-9.85,17,17,0,0,0-1.78-5.58,13.77,13.77,0,0,0-4.11-4.7l.3,0c-.22.18-.47.4-.7.62a21.38,21.38,0,0,0-6.44,10.61,14.64,14.64,0,0,0,1.36,10c.3.66.7,1.24,1,1.82s.72,1.06,1.08,1.52l1,1.27c.33.37.64.7.93,1,.55.62,1,1,1.34,1.35a3.23,3.23,0,0,1,.45.5,3.83,3.83,0,0,1-.53-.42c-.32-.29-.83-.69-1.41-1.29l-1-1-1.07-1.26c-.38-.45-.73-1-1.13-1.52s-.76-1.16-1.08-1.84a14.87,14.87,0,0,1-1.5-10.22,21.57,21.57,0,0,1,6.55-10.89c.25-.23.49-.45.74-.65l.15-.12.15.1a14.34,14.34,0,0,1,4.27,4.91,17.21,17.21,0,0,1,1.81,5.76,22.66,22.66,0,0,1-1.26,10,27.94,27.94,0,0,1-1.42,3.62,23.18,23.18,0,0,1-1.32,2.61c-.38.65-.68,1.19-.91,1.6A4.17,4.17,0,0,1,279.31,202.7Z" style="fill: rgb(255, 255, 255); transform-origin: 277.539px 188.176px 0px;" id="elnv6rc76uire" class="animable"></path><path d="M238,383.23a7.63,7.63,0,0,0,1.62-.31,5.43,5.43,0,0,0,3.27-3.15,5.15,5.15,0,0,0,.34-1.56c0-.56,0-1.17,0-1.8,0-1.26,0-2.62-.05-4.09,0-2.94-.08-6.28-.12-10s-.09-7.75-.13-12.09c0-1.09,0-2.19,0-3.31a9.07,9.07,0,0,0-.35-3.3,5.18,5.18,0,0,0-2.11-2.56,5.5,5.5,0,0,0-3.33-.77l-31.79.28a5.17,5.17,0,0,0-3.6,1.51,5.07,5.07,0,0,0-1.5,3.55c0,2.74,0,5.44.05,8.1,0,5.32.08,10.45.11,15.34q0,3.66.05,7.14a12.9,12.9,0,0,0,.23,3.33,5.16,5.16,0,0,0,4.57,3.7c1,0,2.07,0,3.07,0l5.8,0,17.5-.06h4.76l1.24,0,.42,0-.42,0-1.24,0-4.75.09-17.51.23-5.8.06c-1,0-2,.05-3.1,0a5.71,5.71,0,0,1-3.06-1.18,5.63,5.63,0,0,1-1.91-2.81A6,6,0,0,1,200,378c0-.57,0-1.14,0-1.72q0-3.48-.07-7.14c0-4.89-.09-10-.14-15.33,0-2.67,0-5.37-.06-8.12a5.65,5.65,0,0,1,5.61-5.57l31.79-.24a5.94,5.94,0,0,1,3.59.85,5.59,5.59,0,0,1,2.28,2.8,5.26,5.26,0,0,1,.36,1.75c0,.58,0,1.14,0,1.7,0,1.12,0,2.23,0,3.32,0,4.34,0,8.39.07,12.08s0,7,0,10c0,1.47,0,2.83,0,4.09,0,.63,0,1.22,0,1.81a5.56,5.56,0,0,1-.37,1.62,5.46,5.46,0,0,1-3.43,3.18A4.32,4.32,0,0,1,238,383.23Z" style="fill: rgb(38, 50, 56); transform-origin: 221.596px 361.721px 0px;" id="elmfceglskqj8" class="animable"></path><path d="M207.87,351.71a2.56,2.56,0,0,1,.47,0l1.43,0,5.44-.11,19.34-.28h.23v.24c.06,5.76.12,12.22.19,19l-.27.27h-1.86l-1.84,0-3.63,0-7,0L208,371h-.22V356.83c0-1.61,0-2.89,0-3.81,0-.4,0-.73,0-1a1,1,0,0,1,0-.32s0,.13,0,.37,0,.6,0,1c0,.93.05,2.23.09,3.86.05,3.34.13,8.07.22,13.79l-.21-.21,12.39-.14,7-.07,3.62,0,1.85,0h1.86l-.26.26c0-6.81-.09-13.28-.13-19l.24.24-19.18,0-5.5,0h-1.48Z" style="fill: rgb(38, 50, 56); transform-origin: 221.367px 361.16px 0px;" id="el9w6exy825y" class="animable"></path><path d="M221.31,363.77a1.33,1.33,0,0,1,.24-.27l.72-.71,2.69-2.57c2.34-2.22,5.59-5.28,9.43-8.9l.16.41-13.34.13-13.34.09.15-.41,9.58,8.74,2.73,2.53.73.69a1.66,1.66,0,0,1,.25.27s-.34-.26-1-.81l-2.77-2.41-9.84-8.66-.46-.41h.61l13.35-.14,13.34-.09h.61l-.45.41L225,360.49l-2.74,2.45C221.65,363.5,221.31,363.79,221.31,363.77Z" style="fill: rgb(38, 50, 56); transform-origin: 221.193px 357.51px 0px;" id="elgdf3c5gzhr" class="animable"></path><path d="M217.58,360.42a48.15,48.15,0,0,1-4.59,5.34,47.51,47.51,0,0,1-5,5,48.15,48.15,0,0,1,4.59-5.34A46.35,46.35,0,0,1,217.58,360.42Z" style="fill: rgb(38, 50, 56); transform-origin: 212.783px 365.592px 0px;" id="elpo5nbzjc8gq" class="animable"></path><path d="M234.7,370.53A98.67,98.67,0,0,1,225,360.36a45.91,45.91,0,0,1,5.05,4.9A46,46,0,0,1,234.7,370.53Z" style="fill: rgb(38, 50, 56); transform-origin: 229.85px 365.445px 0px;" id="elkvtabssv8bj" class="animable"></path><rect x="200.15" y="282.75" width="43.16" height="43.16" rx="5.4" style="fill: #4d4da9; transform-origin: 221.73px 304.33px 0px;" id="elpfm6d11izk" class="animable"></rect><path d="M234.31,313.62a3.18,3.18,0,0,1,0-.38c0-.27,0-.61,0-1,0-.95-.05-2.26-.09-3.92,0-3.39-.13-8.17-.22-13.93l.21.21-25,.25.25-.26h0v2.56c0,.86,0,1.71,0,2.55,0,1.68,0,3.33,0,4.95,0,3.23,0,6.31.06,9.19l-.24-.23,18,0,5.14,0h1.38l.49,0a2.23,2.23,0,0,1-.44,0l-1.33,0-5.09.1-18.14.27h-.23v-.23c0-2.89-.06-6-.1-9.2,0-1.61,0-3.27,0-4.95l0-2.54v-2.57h0l.26-.27,25-.16h.22v14.28c0,1.64,0,2.94,0,3.88,0,.41,0,.74,0,1A1.12,1.12,0,0,1,234.31,313.62Z" style="fill: rgb(250, 250, 250); transform-origin: 221.701px 304.02px 0px;" id="el16a8jllxbkq" class="animable"></path><path d="M217.51,290.77a13.08,13.08,0,0,1,2.18-.15c1.39-.06,3.37-.1,5.72-.15h.13l.07.12,2.23,3.68.23.38h-.45l-2.36,0c-3.95,0-7.53,0-10.14,0h-.33l.17-.27c1.41-2.35,2.41-3.76,2.55-3.64s-.24.34-.63,1-1,1.71-1.6,2.82l-.16-.28c2.61-.06,6.19-.12,10.13-.15l2.37,0-.22.39-2.19-3.71.2.12c-2.35,0-4.32,0-5.71-.05A13,13,0,0,1,217.51,290.77Z" style="fill: rgb(250, 250, 250); transform-origin: 221.43px 292.559px 0px;" id="elhg2q7jq50ub" class="animable"></path><path d="M226.88,305.78s.13-.5.18-1.39a5.76,5.76,0,0,0-1-3.56,5.52,5.52,0,1,0-2.86,8.36,5.7,5.7,0,0,0,3-2.2c.51-.74.66-1.23.71-1.21s0,.13-.09.36a4.27,4.27,0,0,1-.45,1,5.72,5.72,0,0,1-3,2.44,5.95,5.95,0,0,1-7.59-3.82A6,6,0,0,1,218,299a6,6,0,0,1,3.31-1.06,5.89,5.89,0,0,1,5,2.68,5.68,5.68,0,0,1,.9,3.77,4.18,4.18,0,0,1-.23,1C227,305.67,226.9,305.78,226.88,305.78Z" style="fill: rgb(250, 250, 250); transform-origin: 221.363px 303.92px 0px;" id="elvxapf50y0m" class="animable"></path><g id="el0frdqyyq1vqg" class=""><rect x="257.41" y="225.01" width="43.16" height="43.16" rx="5.4" style="fill: rgb(69, 90, 100); transform-origin: 278.99px 246.59px 0px; transform: rotate(-0.47deg);" class="animable" id="elglri24uhrj8"></rect></g><path d="M292.77,245.85a25,25,0,0,0-.57-3.47,14.31,14.31,0,0,0-5.29-7.73,14.06,14.06,0,0,0-13.37-1.87,13,13,0,0,0-3.55,1.95,13.39,13.39,0,0,0-2.95,3,14,14,0,0,0,.14,16.64,13.41,13.41,0,0,0,3,3,13.06,13.06,0,0,0,3.57,1.89,14.1,14.1,0,0,0,13.35-2.1,14.36,14.36,0,0,0,5.16-7.81,23.59,23.59,0,0,0,.51-3.48.6.6,0,0,1,0,.23v.69a6.85,6.85,0,0,1-.08,1.11,8.93,8.93,0,0,1-.26,1.5,13.36,13.36,0,0,1-1.51,3.88,14.46,14.46,0,0,1-17.34,6.43,13.5,13.5,0,0,1-3.72-1.94,13.88,13.88,0,0,1-3.11-3.06,14.48,14.48,0,0,1-.14-17.25,13.9,13.9,0,0,1,3.06-3.11,13.62,13.62,0,0,1,3.68-2,14.43,14.43,0,0,1,13.76,2,14.22,14.22,0,0,1,3.68,4.11,13.62,13.62,0,0,1,1.59,3.86,10,10,0,0,1,.28,1.49,7,7,0,0,1,.09,1.11c0,.28,0,.5,0,.69A.6.6,0,0,1,292.77,245.85Z" style="fill: rgb(255, 255, 255); transform-origin: 278.305px 245.984px 0px;" id="elv4d486gdubh" class="animable"></path><path d="M275,239.11a6.52,6.52,0,0,1,.81.4l2.39,1.26c2.05,1.09,5,2.66,8.43,4.56l.38.21-.37.22L281,249.05l-5.77,3.33-.37.21v-.42c0-3.88,0-7.2.06-9.5,0-1.07,0-2,0-2.66a5.06,5.06,0,0,1,0-.9s0,.38.05,1,.05,1.64.09,2.74c.07,2.33.16,5.54.21,9.29l-.37-.21,5.76-3.36,5.65-3.27v.43c-3.29-1.86-6.09-3.51-8.12-4.7l-2.38-1.4C275.27,239.32,275,239.13,275,239.11Z" style="fill: rgb(255, 255, 255); transform-origin: 280.936px 245.85px 0px;" id="eleb6n4paisyk" class="animable"></path><path d="M234.47,268.06c0-.14.67-.26,1.51-.27s1.51.1,1.51.25-.67.26-1.51.27S234.47,268.21,234.47,268.06Z" style="fill: rgb(224, 224, 224); transform-origin: 235.979px 268.049px 0px;" id="el97w6r15dpop" class="animable"></path><path d="M228.42,268.11c0-.14.67-.26,1.51-.27s1.51.1,1.51.25-.67.26-1.51.27S228.42,268.26,228.42,268.11Z" style="fill: rgb(224, 224, 224); transform-origin: 229.932px 268.1px 0px;" id="elifvof9lwbg" class="animable"></path><path d="M222.37,268.16c0-.14.68-.26,1.51-.27s1.51.1,1.52.25-.68.26-1.52.27S222.37,268.31,222.37,268.16Z" style="fill: rgb(224, 224, 224); transform-origin: 223.885px 268.15px 0px;" id="el71ev0q9rkix" class="animable"></path><path d="M216.32,268.21c0-.14.68-.26,1.51-.27s1.51.1,1.52.25-.68.26-1.51.27S216.32,268.36,216.32,268.21Z" style="fill: rgb(224, 224, 224); transform-origin: 217.836px 268.201px 0px;" id="el8r4eep39etc" class="animable"></path><path d="M210.27,268.26c0-.14.68-.26,1.51-.27s1.52.1,1.52.25-.68.26-1.51.27S210.27,268.41,210.27,268.26Z" style="fill: rgb(224, 224, 224); transform-origin: 211.785px 268.25px 0px;" id="el1q27fmqymit" class="animable"></path><path d="M204.23,268.24c0-.17.66-.16,1.5-.2s1.52.1,1.52.25-.68.26-1.51.27S204.18,268.36,204.23,268.24Z" style="fill: rgb(224, 224, 224); transform-origin: 205.738px 268.295px 0px;" id="elql1txo0mwgr" class="animable"></path><path d="M199.91,264.44c.15,0,.42.57.85,1.24s.86,1.17.76,1.28-.72-.25-1.2-1S199.78,264.47,199.91,264.44Z" style="fill: rgb(224, 224, 224); transform-origin: 200.693px 265.711px 0px;" id="el12w194wr7s6b" class="animable"></path><path d="M199.65,258.41c.15,0,.27.68.27,1.51s-.1,1.52-.24,1.52-.27-.68-.28-1.51S199.51,258.42,199.65,258.41Z" style="fill: rgb(224, 224, 224); transform-origin: 199.66px 259.926px 0px;" id="el873g8lysaf5" class="animable"></path><path d="M199.6,252.37c.15,0,.27.67.27,1.51s-.1,1.51-.24,1.51-.27-.68-.28-1.51S199.46,252.37,199.6,252.37Z" style="fill: rgb(224, 224, 224); transform-origin: 199.611px 253.881px 0px;" id="el6gxdhiueheq" class="animable"></path><path d="M199.55,246.32c.15,0,.27.67.27,1.51s-.1,1.51-.24,1.51-.27-.67-.28-1.51S199.41,246.32,199.55,246.32Z" style="fill: rgb(224, 224, 224); transform-origin: 199.561px 247.83px 0px;" id="el4onwpeupe7" class="animable"></path><path d="M199.5,240.27c.15,0,.27.67.27,1.51s-.1,1.51-.24,1.51-.27-.67-.28-1.51S199.36,240.27,199.5,240.27Z" style="fill: rgb(224, 224, 224); transform-origin: 199.51px 241.779px 0px;" id="elwfui3uscsz" class="animable"></path><path d="M199.45,234.22c.15,0,.27.67.27,1.51s-.1,1.51-.24,1.51-.27-.67-.28-1.51S199.31,234.22,199.45,234.22Z" style="fill: rgb(224, 224, 224); transform-origin: 199.459px 235.729px 0px;" id="elyd8fdhlkbtm" class="animable"></path><path d="M199.94,228.24c.13.07-.07.7-.19,1.49s-.16,1.47-.32,1.46-.33-.66-.2-1.55S199.81,228.17,199.94,228.24Z" style="fill: rgb(224, 224, 224); transform-origin: 199.584px 229.713px 0px;" id="elytjpj67ictl" class="animable"></path><path d="M204.77,225.15c0,.14-.66.24-1.42.47s-1.36.5-1.44.38.44-.63,1.29-.88S204.78,225,204.77,225.15Z" style="fill: rgb(224, 224, 224); transform-origin: 203.336px 225.506px 0px;" id="elmwm13gv3bp" class="animable"></path><path d="M210.82,225.1c0,.14-.68.26-1.51.27s-1.52-.11-1.52-.25.68-.27,1.51-.27S210.82,225,210.82,225.1Z" style="fill: rgb(224, 224, 224); transform-origin: 209.305px 225.111px 0px;" id="elh1aweswiwau" class="animable"></path><path d="M216.87,225.05c0,.14-.68.26-1.51.27s-1.52-.11-1.52-.25.68-.27,1.51-.27S216.87,224.9,216.87,225.05Z" style="fill: rgb(224, 224, 224); transform-origin: 215.355px 225.061px 0px;" id="el54z0ysrd08r" class="animable"></path><path d="M222.92,225c0,.14-.68.26-1.51.27s-1.52-.11-1.52-.25.68-.27,1.51-.27S222.91,224.85,222.92,225Z" style="fill: rgb(224, 224, 224); transform-origin: 221.406px 225.01px 0px;" id="el2wyyjmcyxih" class="animable"></path><path d="M229,225c0,.14-.67.26-1.51.27s-1.51-.11-1.51-.25.67-.27,1.51-.27S229,224.8,229,225Z" style="fill: rgb(224, 224, 224); transform-origin: 227.49px 225.01px 0px;" id="elr1fpc6dqp8b" class="animable"></path><path d="M235,224.9c0,.14-.67.26-1.51.27s-1.51-.11-1.51-.25.67-.27,1.51-.27S235,224.75,235,224.9Z" style="fill: rgb(224, 224, 224); transform-origin: 233.49px 224.91px 0px;" id="el4yjvbmtcbxn" class="animable"></path><path d="M240.74,226.22c-.1.1-.65-.26-1.37-.6s-1.35-.53-1.33-.68.75-.17,1.55.21S240.84,226.12,240.74,226.22Z" style="fill: rgb(224, 224, 224); transform-origin: 239.396px 225.537px 0px;" id="el75098hhy94u" class="animable"></path><path d="M242.6,231.73c-.15,0-.27-.67-.28-1.51s-.1-1.44,0-1.49.48.6.48,1.49S242.74,231.73,242.6,231.73Z" style="fill: rgb(224, 224, 224); transform-origin: 242.537px 230.229px 0px;" id="elomcx5xipxu" class="animable"></path><path d="M242.65,237.78c-.15,0-.27-.67-.28-1.51s.11-1.51.25-1.51.27.67.27,1.51S242.79,237.78,242.65,237.78Z" style="fill: rgb(224, 224, 224); transform-origin: 242.631px 236.271px 0px;" id="elszbca9kqaw" class="animable"></path><path d="M242.7,243.83c-.15,0-.27-.67-.28-1.51s.11-1.51.25-1.51.27.67.27,1.51S242.84,243.83,242.7,243.83Z" style="fill: rgb(224, 224, 224); transform-origin: 242.682px 242.318px 0px;" id="elvb079qqwown" class="animable"></path><path d="M242.75,249.88c-.15,0-.27-.67-.28-1.51s.11-1.51.25-1.51.27.67.27,1.51S242.89,249.88,242.75,249.88Z" style="fill: rgb(224, 224, 224); transform-origin: 242.729px 248.369px 0px;" id="elvirwwl6ocbj" class="animable"></path><path d="M242.8,255.93c-.15,0-.27-.67-.28-1.51s.11-1.51.25-1.51.27.67.27,1.51S242.94,255.93,242.8,255.93Z" style="fill: rgb(224, 224, 224); transform-origin: 242.779px 254.42px 0px;" id="eljidru8wxezn" class="animable"></path><path d="M242.85,262c-.15,0-.27-.68-.28-1.51s.11-1.51.25-1.52.27.68.27,1.51S243,262,242.85,262Z" style="fill: rgb(224, 224, 224); transform-origin: 242.83px 260.484px 0px;" id="elsl2ej3423z" class="animable"></path><path d="M240.37,267.18c-.07-.13.43-.56.95-1.16s.88-1.15,1-1.09,0,.77-.63,1.43S240.44,267.3,240.37,267.18Z" style="fill: rgb(224, 224, 224); transform-origin: 241.363px 266.066px 0px;" id="elzjo0we1qnk" class="animable"></path><path d="M291.46,381.2c0-.15.67-.27,1.51-.28s1.51.11,1.51.25-.67.27-1.51.27S291.46,381.34,291.46,381.2Z" style="fill: rgb(224, 224, 224); transform-origin: 292.971px 381.182px 0px;" id="elmm5z9e0gjr" class="animable"></path><path d="M285.41,381.25c0-.15.67-.27,1.51-.28s1.51.11,1.51.25-.67.27-1.51.27S285.41,381.39,285.41,381.25Z" style="fill: rgb(224, 224, 224); transform-origin: 286.92px 381.229px 0px;" id="elhpfl2ilf78p" class="animable"></path><path d="M279.36,381.3c0-.15.67-.27,1.51-.28s1.51.11,1.51.25-.67.27-1.51.27S279.36,381.44,279.36,381.3Z" style="fill: rgb(224, 224, 224); transform-origin: 280.869px 381.279px 0px;" id="elzvaxa7dremh" class="animable"></path><path d="M273.31,381.35c0-.15.67-.27,1.51-.28s1.51.11,1.51.25-.67.27-1.51.27S273.31,381.49,273.31,381.35Z" style="fill: rgb(224, 224, 224); transform-origin: 274.818px 381.33px 0px;" id="elwijgabynxg" class="animable"></path><path d="M267.26,381.4c0-.15.68-.27,1.51-.28s1.51.11,1.52.25-.68.27-1.51.27S267.26,381.54,267.26,381.4Z" style="fill: rgb(224, 224, 224); transform-origin: 268.775px 381.381px 0px;" id="el5s5mphxt0e" class="animable"></path><path d="M261.21,381.37c.05-.16.67-.16,1.51-.2s1.52.11,1.52.25-.68.27-1.51.27S261.17,381.49,261.21,381.37Z" style="fill: rgb(224, 224, 224); transform-origin: 262.725px 381.428px 0px;" id="eldub0aj5qpkw" class="animable"></path><path d="M256.9,377.58c.14,0,.42.56.85,1.23s.86,1.17.76,1.28-.72-.25-1.2-1S256.76,377.6,256.9,377.58Z" style="fill: rgb(224, 224, 224); transform-origin: 257.682px 378.844px 0px;" id="el9it27ppipf5" class="animable"></path><path d="M256.64,371.55c.14,0,.27.67.27,1.51s-.1,1.51-.25,1.51-.26-.67-.27-1.51S256.5,371.55,256.64,371.55Z" style="fill: rgb(224, 224, 224); transform-origin: 256.65px 373.061px 0px;" id="eld0skgiwepc" class="animable"></path><path d="M256.59,365.5c.14,0,.27.67.27,1.51s-.1,1.51-.25,1.51-.26-.67-.27-1.51S256.45,365.5,256.59,365.5Z" style="fill: rgb(224, 224, 224); transform-origin: 256.6px 367.01px 0px;" id="elq5qd7za7cqg" class="animable"></path><path d="M256.54,359.45c.14,0,.27.67.27,1.51s-.1,1.51-.25,1.51-.26-.67-.27-1.51S256.4,359.45,256.54,359.45Z" style="fill: rgb(224, 224, 224); transform-origin: 256.549px 360.959px 0px;" id="elb5oc1svtpts" class="animable"></path><path d="M256.49,353.4c.14,0,.27.68.27,1.51s-.1,1.51-.24,1.51-.27-.67-.28-1.51S256.35,353.4,256.49,353.4Z" style="fill: rgb(224, 224, 224); transform-origin: 256.5px 354.91px 0px;" id="eleioo1cnyt4l" class="animable"></path><path d="M256.44,347.35c.14,0,.27.68.27,1.51s-.1,1.51-.25,1.52-.26-.68-.27-1.51S256.3,347.35,256.44,347.35Z" style="fill: rgb(224, 224, 224); transform-origin: 256.451px 348.865px 0px;" id="elhlqyfo6plie" class="animable"></path><path d="M256.92,341.38c.14.06-.06.7-.18,1.48s-.16,1.47-.32,1.47-.33-.67-.2-1.55S256.8,341.31,256.92,341.38Z" style="fill: rgb(224, 224, 224); transform-origin: 256.57px 342.852px 0px;" id="el14fqvgrutggi" class="animable"></path><path d="M261.76,338.28c0,.15-.66.24-1.42.47s-1.36.51-1.44.38.44-.63,1.29-.88S261.77,338.14,261.76,338.28Z" style="fill: rgb(224, 224, 224); transform-origin: 260.326px 338.639px 0px;" id="eldvie3i57u4k" class="animable"></path><path d="M267.81,338.23c0,.14-.68.26-1.51.27s-1.52-.1-1.52-.25.68-.26,1.51-.27S267.8,338.08,267.81,338.23Z" style="fill: rgb(224, 224, 224); transform-origin: 266.295px 338.24px 0px;" id="elzzfdhhanaum" class="animable"></path><path d="M273.86,338.18c0,.14-.68.26-1.51.27s-1.52-.1-1.52-.25.68-.26,1.51-.27S273.85,338,273.86,338.18Z" style="fill: rgb(224, 224, 224); transform-origin: 272.344px 338.189px 0px;" id="elvfic5terng" class="animable"></path><path d="M279.9,338.13c0,.14-.67.26-1.51.27s-1.51-.1-1.51-.25.67-.26,1.51-.27S279.9,338,279.9,338.13Z" style="fill: rgb(224, 224, 224); transform-origin: 278.389px 338.139px 0px;" id="eli97d3xfuh17" class="animable"></path><path d="M286,338.08c0,.14-.67.26-1.51.27s-1.51-.1-1.51-.25.67-.26,1.51-.27S286,337.93,286,338.08Z" style="fill: rgb(224, 224, 224); transform-origin: 284.49px 338.09px 0px;" id="elmygm65q0wuo" class="animable"></path><path d="M292,338c0,.14-.67.26-1.51.27s-1.51-.1-1.51-.25.67-.26,1.51-.27S292,337.88,292,338Z" style="fill: rgb(224, 224, 224); transform-origin: 290.49px 338.01px 0px;" id="elwedp7850fe" class="animable"></path><path d="M297.73,339.35c-.1.11-.66-.26-1.38-.59s-1.34-.54-1.33-.68.75-.17,1.56.21S297.83,339.25,297.73,339.35Z" style="fill: rgb(224, 224, 224); transform-origin: 296.381px 338.678px 0px;" id="elqlvlmockcg" class="animable"></path><path d="M299.58,344.87c-.14,0-.26-.68-.27-1.51s-.1-1.45,0-1.5.47.6.48,1.49S299.73,344.87,299.58,344.87Z" style="fill: rgb(224, 224, 224); transform-origin: 299.525px 343.363px 0px;" id="elkgxtuf27bpc" class="animable"></path><path d="M299.63,350.92c-.14,0-.26-.68-.27-1.51s.1-1.52.25-1.52.26.68.27,1.51S299.78,350.91,299.63,350.92Z" style="fill: rgb(224, 224, 224); transform-origin: 299.619px 349.406px 0px;" id="elgvsbka4zx0p" class="animable"></path><path d="M299.68,357c-.14,0-.26-.67-.27-1.51s.1-1.51.25-1.51.26.68.27,1.51S299.83,357,299.68,357Z" style="fill: rgb(224, 224, 224); transform-origin: 299.67px 355.49px 0px;" id="el4t1b59x1izm" class="animable"></path><path d="M299.73,363c-.14,0-.26-.67-.27-1.51s.1-1.51.25-1.51.26.67.27,1.51S299.88,363,299.73,363Z" style="fill: rgb(224, 224, 224); transform-origin: 299.721px 361.49px 0px;" id="ely3p0pzpm10n" class="animable"></path><path d="M299.78,369.06c-.14,0-.26-.67-.27-1.51s.1-1.51.25-1.51.26.67.27,1.51S299.93,369.06,299.78,369.06Z" style="fill: rgb(224, 224, 224); transform-origin: 299.771px 367.549px 0px;" id="elvjjlm7fires" class="animable"></path><path d="M299.83,375.11c-.14,0-.26-.67-.27-1.51s.1-1.51.25-1.51.26.67.27,1.51S300,375.11,299.83,375.11Z" style="fill: rgb(224, 224, 224); transform-origin: 299.818px 373.6px 0px;" id="el3ehyovqcqj1" class="animable"></path><path d="M297.36,380.31c-.07-.13.43-.56.95-1.16s.88-1.15,1-1.09,0,.77-.63,1.44S297.43,380.43,297.36,380.31Z" style="fill: rgb(224, 224, 224); transform-origin: 298.352px 379.195px 0px;" id="elx80y4cexoso" class="animable"></path><path d="M291.46,325.87c0-.15.67-.27,1.51-.28s1.51.11,1.51.25-.67.27-1.51.27S291.46,326,291.46,325.87Z" style="fill: rgb(224, 224, 224); transform-origin: 292.971px 325.85px 0px;" id="elqnr1itei2t" class="animable"></path><path d="M285.41,325.92c0-.15.67-.27,1.51-.28s1.51.11,1.51.25-.67.27-1.51.27S285.41,326.06,285.41,325.92Z" style="fill: rgb(224, 224, 224); transform-origin: 286.92px 325.9px 0px;" id="elymekn8z5uad" class="animable"></path><path d="M279.36,326c0-.15.67-.27,1.51-.28s1.51.11,1.51.25-.67.27-1.51.27S279.36,326.11,279.36,326Z" style="fill: rgb(224, 224, 224); transform-origin: 280.869px 325.979px 0px;" id="el0v41eytso64" class="animable"></path><path d="M273.31,326c0-.15.67-.27,1.51-.28s1.51.11,1.51.25-.67.27-1.51.27S273.31,326.16,273.31,326Z" style="fill: rgb(224, 224, 224); transform-origin: 274.818px 325.979px 0px;" id="elamfyfhfhg4n" class="animable"></path><path d="M267.26,326.07c0-.15.68-.27,1.51-.28s1.51.11,1.52.25-.68.27-1.51.27S267.26,326.21,267.26,326.07Z" style="fill: rgb(224, 224, 224); transform-origin: 268.775px 326.049px 0px;" id="ely85hro4j2k" class="animable"></path><path d="M261.21,326c.05-.16.67-.16,1.51-.2s1.52.11,1.52.25-.68.27-1.51.27S261.17,326.16,261.21,326Z" style="fill: rgb(224, 224, 224); transform-origin: 262.725px 326.057px 0px;" id="elny6m2pm9kc" class="animable"></path><path d="M256.9,322.25c.14,0,.42.56.85,1.23s.86,1.17.76,1.28-.72-.25-1.2-1S256.76,322.27,256.9,322.25Z" style="fill: rgb(224, 224, 224); transform-origin: 257.682px 323.516px 0px;" id="el7bi75q2kcdb" class="animable"></path><path d="M256.64,316.22c.14,0,.27.67.27,1.51s-.1,1.51-.25,1.51-.26-.67-.27-1.51S256.5,316.22,256.64,316.22Z" style="fill: rgb(224, 224, 224); transform-origin: 256.65px 317.729px 0px;" id="elksq4wkvjd7" class="animable"></path><path d="M256.59,310.17c.14,0,.27.67.27,1.51s-.1,1.51-.25,1.51-.26-.67-.27-1.51S256.45,310.17,256.59,310.17Z" style="fill: rgb(224, 224, 224); transform-origin: 256.6px 311.682px 0px;" id="elk89i05atjsg" class="animable"></path><path d="M256.54,304.12c.14,0,.27.67.27,1.51s-.1,1.51-.25,1.51-.26-.67-.27-1.51S256.4,304.12,256.54,304.12Z" style="fill: rgb(224, 224, 224); transform-origin: 256.549px 305.631px 0px;" id="elmupmz3tj8qn" class="animable"></path><path d="M256.49,298.07c.14,0,.27.68.27,1.51s-.1,1.51-.24,1.51-.27-.67-.28-1.51S256.35,298.07,256.49,298.07Z" style="fill: rgb(224, 224, 224); transform-origin: 256.5px 299.58px 0px;" id="elo54z1mf49l8" class="animable"></path><path d="M256.44,292c.14,0,.27.68.27,1.51s-.1,1.51-.25,1.52-.26-.68-.27-1.51S256.3,292,256.44,292Z" style="fill: rgb(224, 224, 224); transform-origin: 256.451px 293.516px 0px;" id="elztuani93rss" class="animable"></path><path d="M256.92,286.05c.14.06-.06.7-.18,1.48s-.16,1.47-.32,1.47-.33-.67-.2-1.55S256.8,286,256.92,286.05Z" style="fill: rgb(224, 224, 224); transform-origin: 256.57px 287.523px 0px;" id="elbq0emno0rec" class="animable"></path><path d="M261.76,283c0,.15-.66.24-1.42.47s-1.36.51-1.44.38.44-.63,1.29-.88S261.77,282.81,261.76,283Z" style="fill: rgb(224, 224, 224); transform-origin: 260.326px 283.35px 0px;" id="ellsv0ca0aqb" class="animable"></path><path d="M267.81,282.9c0,.14-.68.26-1.51.27s-1.52-.1-1.52-.25.68-.26,1.51-.27S267.8,282.75,267.81,282.9Z" style="fill: rgb(224, 224, 224); transform-origin: 266.295px 282.91px 0px;" id="elf694kqyht7j" class="animable"></path><path d="M273.86,282.85c0,.14-.68.26-1.51.27s-1.52-.1-1.52-.25.68-.26,1.51-.27S273.85,282.7,273.86,282.85Z" style="fill: rgb(224, 224, 224); transform-origin: 272.344px 282.861px 0px;" id="eli7p6ner9xgj" class="animable"></path><path d="M279.9,282.8c0,.14-.67.26-1.51.27s-1.51-.1-1.51-.25.67-.26,1.51-.27S279.9,282.65,279.9,282.8Z" style="fill: rgb(224, 224, 224); transform-origin: 278.389px 282.811px 0px;" id="elkz52wfh7cq" class="animable"></path><path d="M286,282.75c0,.14-.67.26-1.51.27s-1.51-.1-1.51-.25.67-.26,1.51-.27S286,282.6,286,282.75Z" style="fill: rgb(224, 224, 224); transform-origin: 284.49px 282.76px 0px;" id="elzlpj4u5f92l" class="animable"></path><path d="M292,282.7c0,.14-.67.26-1.51.27s-1.51-.1-1.51-.25.67-.26,1.51-.27S292,282.55,292,282.7Z" style="fill: rgb(224, 224, 224); transform-origin: 290.49px 282.709px 0px;" id="elzvifawwsja" class="animable"></path><path d="M297.73,284c-.1.11-.66-.26-1.38-.59s-1.34-.54-1.33-.68.75-.17,1.56.21S297.83,283.92,297.73,284Z" style="fill: rgb(224, 224, 224); transform-origin: 296.381px 283.326px 0px;" id="elvilt21cexqa" class="animable"></path><path d="M299.58,289.54c-.14,0-.26-.68-.27-1.51s-.1-1.45,0-1.5.47.6.48,1.49S299.73,289.54,299.58,289.54Z" style="fill: rgb(224, 224, 224); transform-origin: 299.525px 288.033px 0px;" id="elkssquw2n5rk" class="animable"></path><path d="M299.63,295.59c-.14,0-.26-.68-.27-1.51s.1-1.52.25-1.52.26.68.27,1.51S299.78,295.58,299.63,295.59Z" style="fill: rgb(224, 224, 224); transform-origin: 299.619px 294.074px 0px;" id="eljr2dd9koff" class="animable"></path><path d="M299.68,301.64c-.14,0-.26-.68-.27-1.51s.1-1.52.25-1.52.26.68.27,1.51S299.83,301.63,299.68,301.64Z" style="fill: rgb(224, 224, 224); transform-origin: 299.67px 300.125px 0px;" id="ellwxdn0bocwi" class="animable"></path><path d="M299.73,307.68c-.14,0-.26-.67-.27-1.51s.1-1.51.25-1.51.26.67.27,1.51S299.88,307.68,299.73,307.68Z" style="fill: rgb(224, 224, 224); transform-origin: 299.721px 306.17px 0px;" id="elwtwvvgvatw" class="animable"></path><path d="M299.78,313.73c-.14,0-.26-.67-.27-1.51s.1-1.51.25-1.51.26.67.27,1.51S299.93,313.73,299.78,313.73Z" style="fill: rgb(224, 224, 224); transform-origin: 299.771px 312.221px 0px;" id="elun59a3i8frb" class="animable"></path><path d="M299.83,319.78c-.14,0-.26-.67-.27-1.51s.1-1.51.25-1.51.26.67.27,1.51S300,319.78,299.83,319.78Z" style="fill: rgb(224, 224, 224); transform-origin: 299.818px 318.271px 0px;" id="elmnnssvzlm8o" class="animable"></path><path d="M297.36,325c-.07-.13.43-.56.95-1.16s.88-1.15,1-1.09,0,.77-.63,1.44S297.43,325.1,297.36,325Z" style="fill: rgb(224, 224, 224); transform-origin: 298.352px 323.885px 0px;" id="elmov5bz2sspf" class="animable"></path><g id="elm4rs7sgfp" class=""><circle cx="239.93" cy="167.73" r="8.32" style="fill: #4d4da9; transform-origin: 239.93px 167.73px 0px; transform: rotate(-25.38deg);" class="animable" id="el03m41oy2bl8t"></circle></g><path d="M243,169.06c0,1.22-.87,2.17-2.63,2.18a3.82,3.82,0,0,1-2.65-.92l.36-.6a3.21,3.21,0,0,0,2.28.83c1.21,0,1.88-.58,1.87-1.49s-.63-1.44-2-1.43h-.52v-.55l2-2.56-3.74,0v-.67l4.71,0v.54l-2,2.62C242.18,167.07,243,167.89,243,169.06Z" style="fill: rgb(255, 255, 255); transform-origin: 240.359px 167.547px 0px;" id="eliwmvsvq2u6h" class="animable"></path><path d="M239.72,396.16a2.13,2.13,0,1,1-2.15-2.11A2.12,2.12,0,0,1,239.72,396.16Z" style="fill: rgb(38, 50, 56); transform-origin: 237.59px 396.18px 0px;" id="el5xm9t790l3q" class="animable"></path><path d="M251.62,396.06a2.13,2.13,0,1,1-2.14-2.1A2.12,2.12,0,0,1,251.62,396.06Z" style="fill: rgb(38, 50, 56); transform-origin: 249.49px 396.09px 0px;" id="el4l8fln1zpfi" class="animable"></path><path d="M263.53,396a2.13,2.13,0,1,1-2.14-2.1A2.13,2.13,0,0,1,263.53,396Z" style="fill: rgb(38, 50, 56); transform-origin: 261.4px 396.029px 0px;" id="elekqiwvpwq0v" class="animable"></path><path d="M306,139c0,.08-2.79.18-6.24.21s-6.25,0-6.25-.11,2.79-.18,6.24-.21S306,138.94,306,139Z" style="fill: rgb(38, 50, 56); transform-origin: 299.756px 139.053px 0px;" id="elnkzgv97e9fl" class="animable"></path><path d="M306.06,142.23c0,.08-2.8.17-6.25.2s-6.24,0-6.25-.1a61.52,61.52,0,0,1,6.25-.21A59.8,59.8,0,0,1,306.06,142.23Z" style="fill: rgb(38, 50, 56); transform-origin: 299.809px 142.264px 0px;" id="el1x004bhay69" class="animable"></path><path d="M306.09,145.42a61.52,61.52,0,0,1-6.25.21c-3.45,0-6.25,0-6.25-.1a61.52,61.52,0,0,1,6.25-.21C303.29,145.29,306.09,145.34,306.09,145.42Z" style="fill: rgb(38, 50, 56); transform-origin: 299.84px 145.475px 0px;" id="elcwxnv1tinh8" class="animable"></path><path d="M192.39,149.07l.26,0,.73,0L196,149,196,149c0-.59,0-1.24,0-1.93,0-.36,0-.7,0-1.12a1.06,1.06,0,0,1,.91-.84c.44,0,.81,0,1.28,0a1.07,1.07,0,0,1,.9,1.05c0,.91,0,1.85,0,2.83l-.15-.15,3.37,0-.15.15c0-1.36,0-2.76,0-4.19,0-.36,0-.72,0-1.07a1,1,0,0,0-.47-.78l-1.47-1.45-1.42-1.4-.68-.68c-.24-.23-.42-.46-.69-.51a.87.87,0,0,0-.75.14c-.2.17-.42.41-.63.61l-1.2,1.22c-.76.79-1.56,1.51-2.13,2.19a2.35,2.35,0,0,0-.17,1.24v1.18c0,.73,0,1.36,0,1.91s0,.88,0,1.23a2.3,2.3,0,0,1,0,.44,3.55,3.55,0,0,1,0-.4c0-.34,0-.73,0-1.2s0-1.2-.05-1.93c0-.38,0-.78,0-1.21a2.62,2.62,0,0,1,.18-1.38c.63-.77,1.37-1.44,2.13-2.25l1.2-1.23c.22-.21.39-.42.65-.65a1.16,1.16,0,0,1,1-.19,1.8,1.8,0,0,1,.82.58l.69.68,1.43,1.39,1.47,1.45a1.37,1.37,0,0,1,.56,1c0,.36,0,.71,0,1.07q0,2.16,0,4.2v.15h-.15l-3.36,0h-.15V149c0-1,0-1.92,0-2.82a.8.8,0,0,0-.67-.8c-.38,0-.84,0-1.21,0a.82.82,0,0,0-.71.64c0,.33,0,.73,0,1.08v2H196l-2.71,0h-.71A.94.94,0,0,1,192.39,149.07Z" style="fill: rgb(38, 50, 56); transform-origin: 197.51px 143.869px 0px;" id="elh0ct5g01x1" class="animable"></path><g id="eltgzlw9mqv3o" class=""><rect x="305.06" y="341.37" width="43.16" height="43.16" rx="5.4" style="fill: rgb(69, 90, 100); transform-origin: 326.64px 362.95px 0px; transform: rotate(-0.572939deg);" class="animable" id="el3agb0cgbwrh"></rect></g><path d="M316.13,361.1l.45.35,1.21,1,4.43,3.64.06.05v.08c-.21,2.2-.46,4.85-.75,7.82l-.32-.2,6.68-4.14.11-.07.11.06,7.2,3.16-.35.29c-.6-2.46-1.22-5-1.86-7.63,0-.11-.06.23.06-.24h0l0,0,0-.05.09-.1.17-.18.33-.38.67-.74,1.32-1.48,2.59-2.88.17.43-7.83-.62h-.13l-.06-.11-3.92-6.81.37,0-3,7.25,0,.08h-.08l-5.63,1.11-1.53.29a4.17,4.17,0,0,1-.56.1l.48-.12,1.47-.35,5.7-1.33-.11.09,2.95-7.29.15-.39.22.37,4,6.78-.19-.12,7.84.59.51,0-.34.38-2.58,2.89-1.32,1.47-.67.75-.34.37-.16.19-.09.1,0,0,0,0h0c.12-.47,0-.13.06-.23.63,2.61,1.25,5.17,1.84,7.63l.12.51-.47-.21-7.18-3.2h.22l-6.71,4.09-.36.22.05-.42c.32-3,.61-5.62.85-7.81l.06.13-4.4-3.87-1.13-1Z" style="fill: rgb(250, 250, 250); transform-origin: 327.639px 363.08px 0px;" id="el43yw2fc1htc" class="animable"></path></g><g id="freepik--Character--inject-2" style="transform-origin: 116.955px 294.492px 0px;" class="animable"><polygon points="139.5 347.48 147.39 422.87 133.69 422.87 120.01 357.68 139.5 347.48" style="fill: rgb(255, 190, 157); transform-origin: 133.7px 385.175px 0px;" id="el70e1dngh7i6" class="animable"></polygon><path d="M114.14,310.3H90.24l5.08,43.9L59.58,404l7.29,9.32,39.69-41.26,8.27-8.88a9.37,9.37,0,0,0,2.49-7Z" style="fill: rgb(255, 190, 157); transform-origin: 88.459px 361.811px 0px;" id="eloidfkd3n54" class="animable"></path><path d="M115.19,340.32a2.07,2.07,0,0,1,.18.5c.1.33.24.82.4,1.46.32,1.28.75,3.14,1.13,5.47a42.9,42.9,0,0,1,.64,8.26,14.68,14.68,0,0,1-.94,4.86,15.84,15.84,0,0,1-3,4.33c-5,5.2-9.49,9.86-12.77,13.23l-3.92,4-1.08,1.06c-.25.24-.39.36-.4.34a2.33,2.33,0,0,1,.33-.41l1-1.13,3.79-4.08c3.29-3.47,7.74-8.15,12.65-13.34a15.32,15.32,0,0,0,3-4.18,14.26,14.26,0,0,0,.93-4.67,46,46,0,0,0-.52-8.19c-.34-2.32-.71-4.19-1-5.47l-.3-1.49A1.87,1.87,0,0,1,115.19,340.32Z" style="fill: rgb(235, 153, 110); transform-origin: 106.488px 362.076px 0px;" id="elq3zkhp8caom" class="animable"></path><path d="M161.63,251.33h0l.42-.06a93.26,93.26,0,0,0,10.1-2c4.09-1.26,4-1.64,3.77-2.09-.58-1.23-7.26,1.94-6.2.42s8.6-2.92,7.94-4.18c-.86-1.63-7.8,1.82-8.41,2.07s-1-.63-.4-.83c.8-.28,9.18-3.42,8.35-5-.46-.89-2,.13-2,.13s-7.64,3.52-8,2.75,4.05-3,5.59-3.66,1.85-1.62,1-2.07c-.56-.31-5.32,1.55-6.83,2.22s-5.62,2.59-4.32,0c0,0,0-.09.05-.13,1.35-2.53,1.56-4.93,1.14-5.67a1,1,0,0,0-1.77.26,1,1,0,0,0-.1.4,1.66,1.66,0,0,0,0,.22,14.88,14.88,0,0,1-1.1,2.75,8,8,0,0,1-1.56,2.13c-.72.7-1.37,1.28-1.93,1.75L151.7,243l5.14,9.72,3.67-.71" style="fill: rgb(255, 190, 157); transform-origin: 164.699px 242.76px 0px;" id="el5vepmw7y1iu" class="animable"></path><path d="M139.4,245.41l19-6.26L162.75,253l-25.88,9.12a9.45,9.45,0,0,1-11.7-4.91l-4.38-16.86,13.3-10.06Z" style="fill: #4d4da9; transform-origin: 141.77px 246.475px 0px;" id="elun8b3pcz06q" class="animable"></path><path d="M99.57,208.11s-21.78-2.9-20,19.09c.58,7.33,3.85,17.8,6.22,23.63A9,9,0,0,1,86,257c-2.08,6.51-7.31,16.12-8.2,21.5l44.93,3.76L122.6,245l7.74-3.17,6.53-2.57c-8.6-36.28-24.6-31.6-24.6-31.6l-12.7.41" style="fill: #4d4da9; transform-origin: 107.336px 244.863px 0px;" id="elvi86foj6j6h" class="animable"></path><g id="elds4kr8olgla"><g style="opacity: 0.2; transform-origin: 101.789px 256.73px 0px;" class="animable" id="elegvnd78474b"><path d="M86.43,252.65c.43,3.33-1,6.28-2.46,9.67,0,0,6.33,14.82,12.25,15.48,5,.57,16.08,1.61,26.49,2.59l.35-8.4L80.52,233.07C81.3,238.21,83.71,244.77,86.43,252.65Z" id="elzvnljyqq28" style="transform-origin: 101.789px 256.73px 0px;" class="animable"></path></g></g><path d="M143,348.21c-10.72-22.22-19.59-46-20.26-70.67l.28-41.7-17.29,2-7.19,40.23-21,.45c-4.22,10-3.36,20.91-.49,30.89,3.36,11.71,10.59,23.05,8.68,35.08-.46,2.85-1.32,6.13.51,8.35,1.22,1.49,3.27,2,5.15,2.34,14.91,3,30.62,5.95,45.08,1.22a5.6,5.6,0,0,0,2.67-1.61C141.77,351.61,143.86,349.91,143,348.21Z" style="fill: rgb(38, 50, 56); transform-origin: 108.914px 297.361px 0px;" id="elvu6rktxu44" class="animable"></path><path d="M97.94,280.89a3.93,3.93,0,0,1-.35,2,7.67,7.67,0,0,1-7.81,5,4,4,0,0,1-2-.52c0-.08.77.14,2,.15a8,8,0,0,0,7.45-4.76C97.75,281.64,97.85,280.87,97.94,280.89Z" style="fill: rgb(69, 90, 100); transform-origin: 92.8691px 284.402px 0px;" id="eld5ayzj0qlvt" class="animable"></path><path d="M121.76,223.2a3.5,3.5,0,0,1-.16,1c-.14.64-.35,1.57-.63,2.72l0-.14c.55.93,1.16,2.06,1.77,3.33a21,21,0,0,1,1.63,4.32,5.64,5.64,0,0,1,.11.92c0,.29,0,.58,0,.87,0,.57-.07,1.13-.13,1.67a28.63,28.63,0,0,1-.52,3,25.07,25.07,0,0,1-1.31,4.18V245a5,5,0,0,1-.12,1.38,6.29,6.29,0,0,1-.12-1.38h0v0a35.23,35.23,0,0,0,1.1-4.18c.18-.91.34-1.9.45-3,0-.53.09-1.08.11-1.64l0-.85a5.92,5.92,0,0,0-.1-.82,22.34,22.34,0,0,0-1.55-4.22c-.59-1.27-1.16-2.4-1.67-3.35l0-.07,0-.07c.33-1.13.6-2.05.8-2.68A3.62,3.62,0,0,1,121.76,223.2Z" style="fill: rgb(38, 50, 56); transform-origin: 122.551px 234.789px 0px;" id="elffk59yjxrmh" class="animable"></path><path d="M112.76,240.48s-.13.53-.65,1.2a7.1,7.1,0,0,1-5.8,2.65A2.49,2.49,0,0,1,105,244a11.9,11.9,0,0,0,4.32-.82A11.91,11.91,0,0,0,112.76,240.48Z" style="fill: rgb(38, 50, 56); transform-origin: 108.881px 242.406px 0px;" id="elagm1vo0gjlm" class="animable"></path><path d="M86.76,210.28s12.8,9,19.34,27.54l2.9-.37S104.1,219,88.88,209.33A8.09,8.09,0,0,0,86.76,210.28Z" style="fill: rgb(38, 50, 56); transform-origin: 97.8809px 223.574px 0px;" id="eluwk4ymz6sk" class="animable"></path><path d="M114.2,207.79s8,13.68,8.27,28.62h-2.74s-3.19-23.14-9-28.91Z" style="fill: rgb(38, 50, 56); transform-origin: 116.6px 221.955px 0px;" id="elg1xi1vr0xrq" class="animable"></path><path d="M109.38,237.4c.05,0,.31.38.54,1.13a2.92,2.92,0,0,1,.08,1.41,2,2,0,0,1-1.09,1.42,1.64,1.64,0,0,1-1.77-.38,2.44,2.44,0,0,1-.67-1.26c-.16-.77-.11-1.24,0-1.25s.16.46.4,1.15a2.33,2.33,0,0,0,.65,1,1.17,1.17,0,0,0,1.23.27,1.61,1.61,0,0,0,.83-1.06,3,3,0,0,0,0-1.22C109.43,237.89,109.3,237.43,109.38,237.4Z" style="fill: rgb(69, 90, 100); transform-origin: 108.209px 239.436px 0px;" id="el3qzszx84tjg" class="animable"></path><path d="M107.83,238.56c0,.07,0,.17,0,.29a.18.18,0,0,0,.08.12.24.24,0,0,0,.1,0c.06,0,.08,0,.09-.07a.23.23,0,0,0,0-.14c-.07-.1-.17-.13-.2-.19s.11-.23.39-.12a.51.51,0,0,1,.32.41.57.57,0,0,1-.34.59.58.58,0,0,1-.67-.13.52.52,0,0,1-.09-.52C107.58,238.5,107.82,238.5,107.83,238.56Z" style="fill: rgb(69, 90, 100); transform-origin: 108.045px 238.959px 0px;" id="el0xmuofm55i8s" class="animable"></path><path d="M121.27,238.05c0,.07-.16.15-.43.12a1.49,1.49,0,0,1-1.25-1.49c0-.27.13-.41.19-.4s.15.57.56,1S121.26,237.91,121.27,238.05Z" style="fill: rgb(69, 90, 100); transform-origin: 120.43px 237.229px 0px;" id="eljp1jc8a2ua" class="animable"></path><path d="M118,246.51a14.91,14.91,0,0,1-3.83.86,15,15,0,0,1-3.9.34,14.9,14.9,0,0,1,3.82-.86A15,15,0,0,1,118,246.51Z" style="fill: rgb(69, 90, 100); transform-origin: 114.135px 247.109px 0px;" id="eluo8lwzu481" class="animable"></path><path d="M112.62,292.24a26.1,26.1,0,0,0,1.22,3.19c.79,1.94,1.88,4.63,3,7.62s2.17,5.71,2.9,7.69a25.15,25.15,0,0,0,1.26,3.17,3.71,3.71,0,0,0-.21-.9c-.15-.57-.4-1.38-.73-2.38-.65-2-1.61-4.76-2.78-7.75s-2.31-5.67-3.18-7.59c-.44-1-.81-1.73-1.07-2.25A3.6,3.6,0,0,0,112.62,292.24Z" style="fill: rgb(69, 90, 100); transform-origin: 116.811px 303.074px 0px;" id="elzh17ktz63se" class="animable"></path><path d="M67.48,414.21l.91-.8L60,403.08l-3.79,3.31.51.65c2.26,2.87,11.7,14.44,13.87,15.78C73,424.31,67.48,414.21,67.48,414.21Z" style="fill: #4d4da9; transform-origin: 63.7051px 413.023px 0px;" id="el1qfs9odltxv" class="animable"></path><g id="elisxwr7cwf4"><g style="opacity: 0.5; transform-origin: 58.4141px 406.855px 0px;" class="animable" id="elhwptjc90nw"><path d="M59.46,409.92a4.55,4.55,0,0,0,1-3.13,4.45,4.45,0,0,0-1.32-3l-2.78,2.45Z" style="fill: rgb(255, 255, 255); transform-origin: 58.4141px 406.855px 0px;" id="elhjv1at4mf8" class="animable"></path></g></g><g id="eloi3e0prb6f"><g style="opacity: 0.5; transform-origin: 63.7109px 414.625px 0px;" class="animable" id="el6k08z6444ic"><path d="M70,419.28s1.76,3.7,1,3.76-10.8-11.27-14.77-16.65l.24-.18L68,419.53S69.5,418.72,70,419.28Z" style="fill: rgb(255, 255, 255); transform-origin: 63.7109px 414.625px 0px;" id="eltttce25vxlb" class="animable"></path></g></g><path d="M56.32,406.05a.89.89,0,0,0,.13.19l.4.51,1.51,1.88c1.29,1.57,3.1,3.71,5.15,6s3.95,4.4,5.34,5.87l1.67,1.74.46.47a1,1,0,0,0,.16.15s0-.06-.14-.17l-.44-.49-1.63-1.77c-1.37-1.5-3.26-3.58-5.3-5.9s-3.87-4.46-5.18-6l-1.55-1.84-.42-.49A1.45,1.45,0,0,0,56.32,406.05Z" style="fill: rgb(38, 50, 56); transform-origin: 63.7305px 414.455px 0px;" id="el7vrxzuq64hl" class="animable"></path><path d="M67.83,419.66a3.46,3.46,0,0,1,2.39-.41,2.12,2.12,0,0,0-2.39.41Z" style="fill: rgb(38, 50, 56); transform-origin: 69.0234px 419.354px 0px;" id="el26bhrz2v14" class="animable"></path><path d="M66.73,415.42c0,.05.3,0,.66,0a1.53,1.53,0,0,0,.63-.18,1.56,1.56,0,0,0-.66,0A1.53,1.53,0,0,0,66.73,415.42Z" style="fill: rgb(38, 50, 56); transform-origin: 67.375px 415.322px 0px;" id="elqitiqeptud9" class="animable"></path><path d="M66.45,414.25s.24.1.54.14.56,0,.56,0-.24-.1-.54-.14S66.45,414.2,66.45,414.25Z" style="fill: rgb(38, 50, 56); transform-origin: 67px 414.311px 0px;" id="el6vmxr6mz987" class="animable"></path><path d="M66.94,412.91s.14.29.39.58.48.5.51.47-.14-.29-.39-.58S67,412.88,66.94,412.91Z" style="fill: rgb(38, 50, 56); transform-origin: 67.3926px 413.436px 0px;" id="el6fulzkxldkq" class="animable"></path><path d="M67.44,412.16a1.33,1.33,0,0,0,.35.72,1.43,1.43,0,0,0,.6.53s-.22-.28-.48-.63S67.49,412.14,67.44,412.16Z" style="fill: rgb(38, 50, 56); transform-origin: 67.916px 412.785px 0px;" id="elcijdo49spnc" class="animable"></path><path d="M67.89,415a2.79,2.79,0,0,0,.57.63,4.87,4.87,0,0,0,.75.55,3.32,3.32,0,0,0,.5.25.5.5,0,0,0,.34,0,.33.33,0,0,0,.17-.32,1.56,1.56,0,0,0-1.62-1.15,1.54,1.54,0,0,0-.61.17c-.13.07-.19.13-.18.14a2,2,0,0,1,.8-.19,1.44,1.44,0,0,1,.83.23,1.38,1.38,0,0,1,.62.8c0,.17-.14.24-.31.18a2.23,2.23,0,0,1-.47-.22,5.41,5.41,0,0,1-.75-.51C68.13,415.22,67.91,415,67.89,415Z" style="fill: rgb(38, 50, 56); transform-origin: 69.0137px 415.709px 0px;" id="elqa9tsujefq" class="animable"></path><path d="M68,415.19s.24,0,.51-.32a1.51,1.51,0,0,0,.31-.58.87.87,0,0,0-.14-.82.35.35,0,0,0-.47.06.9.9,0,0,0-.19.36,2.44,2.44,0,0,0-.12.64,1.25,1.25,0,0,0,.06.6s0-.23,0-.58a2.7,2.7,0,0,1,.15-.61c.06-.2.24-.48.41-.34a.72.72,0,0,1,.1.66,1.5,1.5,0,0,1-.25.54C68.21,415.08,68,415.16,68,415.19Z" style="fill: rgb(38, 50, 56); transform-origin: 68.377px 414.299px 0px;" id="eladap2ak1kii" class="animable"></path><path d="M59.21,403.86s.28.26.62.76a4.19,4.19,0,0,1,.75,2.18,4.24,4.24,0,0,1-.53,2.24c-.29.53-.56.79-.54.81s.08-.05.2-.17a3.73,3.73,0,0,0,.44-.58,4.12,4.12,0,0,0,.59-2.31,4,4,0,0,0-.82-2.24,2.93,2.93,0,0,0-.49-.53C59.3,403.9,59.22,403.85,59.21,403.86Z" style="fill: rgb(38, 50, 56); transform-origin: 59.9766px 406.857px 0px;" id="elvxxwra4ajd" class="animable"></path><path d="M61.52,410.32a7.75,7.75,0,0,0,1.15,1.57,7.28,7.28,0,0,0,1.4,1.34s-.58-.64-1.28-1.45S61.56,410.3,61.52,410.32Z" style="fill: rgb(38, 50, 56); transform-origin: 62.7949px 411.775px 0px;" id="elkez94o6oof" class="animable"></path><path d="M59.82,408.37s-.09.17-.18.37-.19.35-.16.38.2-.09.31-.32S59.86,408.37,59.82,408.37Z" style="fill: rgb(38, 50, 56); transform-origin: 59.668px 408.748px 0px;" id="ele76m4zowdl" class="animable"></path><path d="M60.09,406.83c-.05,0-.09.15-.11.35s0,.35.06.35.09-.15.1-.34S60.13,406.83,60.09,406.83Z" style="fill: rgb(38, 50, 56); transform-origin: 60.0566px 407.18px 0px;" id="elt6ibwfgrfv" class="animable"></path><path d="M59.58,405.41s.09.17.17.36.09.37.14.37.1-.19,0-.43S59.6,405.38,59.58,405.41Z" style="fill: rgb(38, 50, 56); transform-origin: 59.7637px 405.771px 0px;" id="el0fepmdwkgwgn" class="animable"></path><path d="M59.12,404.49s0,.12,0,.23.11.19.15.17,0-.11,0-.22S59.16,404.48,59.12,404.49Z" style="fill: rgb(38, 50, 56); transform-origin: 59.2031px 404.691px 0px;" id="elgyfmkwn355v" class="animable"></path><path d="M147,423.21l0-1.22-13.31-.06.16,5,.82,0c3.66.07,18.59.11,21-.72C158.27,425.34,147,423.21,147,423.21Z" style="fill: #4d4da9; transform-origin: 144.877px 424.447px 0px;" id="elye7cxdp4xja" class="animable"></path><g id="ely8aeztag4ql"><g style="opacity: 0.5; transform-origin: 136.096px 424.908px 0px;" class="animable" id="eln0rygsna6qk"><path d="M138.55,426.68a4.61,4.61,0,0,0-1.79-2.76,4.47,4.47,0,0,0-3.12-.85l.13,3.7Z" style="fill: rgb(255, 255, 255); transform-origin: 136.096px 424.908px 0px;" id="elwwvqqc22ps" class="animable"></path></g></g><g id="elagdboesxryn"><g style="opacity: 0.5; transform-origin: 144.902px 425.758px 0px;" class="animable" id="elfnqhy0t58f"><path d="M152.49,424.45s4,1,3.51,1.66-15.56,1.19-22.24.85v-.3l17.61-.47S151.72,424.51,152.49,424.45Z" style="fill: rgb(255, 255, 255); transform-origin: 144.902px 425.758px 0px;" id="el63s1y7kcpiu" class="animable"></path></g></g><path d="M133.57,426.66l.22,0h.66l2.4,0c2,0,4.84,0,7.94-.14s5.9-.27,7.93-.41l2.4-.18.65-.06.23,0h-.23l-.65,0-2.41.13c-2,.11-4.83.25-7.92.36s-5.91.16-7.94.19l-2.4,0h-.66A.89.89,0,0,0,133.57,426.66Z" style="fill: rgb(38, 50, 56); transform-origin: 144.785px 426.266px 0px;" id="eljy7p1qpq1ep" class="animable"></path><path d="M151.39,426.39a5.11,5.11,0,0,1,.41-1.16,5.49,5.49,0,0,1,.78-1,2.15,2.15,0,0,0-1.19,2.11Z" style="fill: rgb(38, 50, 56); transform-origin: 151.98px 425.311px 0px;" id="elv6ub2u90ymm" class="animable"></path><path d="M147.42,424.55s.21-.21.4-.52a1.57,1.57,0,0,0,.26-.6s-.22.21-.4.52S147.38,424.53,147.42,424.55Z" style="fill: rgb(38, 50, 56); transform-origin: 147.746px 423.99px 0px;" id="el9sztd4y3h8e" class="animable"></path><path d="M146.33,424s.23-.12.45-.33.38-.41.35-.44-.24.11-.46.32S146.3,424,146.33,424Z" style="fill: rgb(38, 50, 56); transform-origin: 146.729px 423.613px 0px;" id="elz9tja2l8ymg" class="animable"></path><path d="M145.61,422.8c0,.05.31.07.69.06a1.55,1.55,0,0,0,.69-.09s-.31-.07-.7-.07A1.53,1.53,0,0,0,145.61,422.8Z" style="fill: rgb(38, 50, 56); transform-origin: 146.299px 422.781px 0px;" id="elvt3t11hzzf" class="animable"></path><path d="M145.34,421.93a1.38,1.38,0,0,0,.78.2,1.31,1.31,0,0,0,.79-.14,5.63,5.63,0,0,0-.78,0A4.54,4.54,0,0,0,145.34,421.93Z" style="fill: rgb(38, 50, 56); transform-origin: 146.125px 422.035px 0px;" id="el7ab8ynzox3k" class="animable"></path><path d="M147.82,423.38a2.35,2.35,0,0,0,.85,0,4.77,4.77,0,0,0,.9-.23,3.23,3.23,0,0,0,.51-.23.47.47,0,0,0,.2-.28.33.33,0,0,0-.14-.33,1.57,1.57,0,0,0-2.17,1.1c0,.15,0,.23,0,.23a2.51,2.51,0,0,1,.36-.74,1.58,1.58,0,0,1,.71-.49,1.34,1.34,0,0,1,1,0c.13.09.09.25-.06.35a2.86,2.86,0,0,1-.47.22,6.8,6.8,0,0,1-.87.26C148.15,423.35,147.82,423.36,147.82,423.38Z" style="fill: rgb(38, 50, 56); transform-origin: 149.053px 422.908px 0px;" id="elcerqyv6qc4" class="animable"></path><path d="M148.05,423.42a.82.82,0,0,0,.07-.59,1.33,1.33,0,0,0-.25-.62.86.86,0,0,0-.72-.4.33.33,0,0,0-.25.4.89.89,0,0,0,.16.37,2.17,2.17,0,0,0,.42.5,1.42,1.42,0,0,0,.49.33s-.17-.15-.41-.41a2.61,2.61,0,0,1-.38-.5c-.12-.17-.21-.49,0-.54s.44.18.57.34a1.44,1.44,0,0,1,.26.55A3.3,3.3,0,0,1,148.05,423.42Z" style="fill: rgb(38, 50, 56); transform-origin: 147.518px 422.615px 0px;" id="ell5rlfpjipb" class="animable"></path><path d="M133.71,423s.38,0,1,0a4.3,4.3,0,0,1,2.16.81,4.23,4.23,0,0,1,1.39,1.83c.23.56.26.94.29.94a.82.82,0,0,0,0-.27,3.5,3.5,0,0,0-.17-.71,4,4,0,0,0-1.41-1.92,4.09,4.09,0,0,0-2.25-.79,3.52,3.52,0,0,0-.72,0A.76.76,0,0,0,133.71,423Z" style="fill: rgb(38, 50, 56); transform-origin: 136.137px 424.727px 0px;" id="elswz6l31oat" class="animable"></path><path d="M140.17,425.35a8,8,0,0,0,1.94.11,7.74,7.74,0,0,0,1.92-.24c0-.05-.86,0-1.93.08S140.17,425.3,140.17,425.35Z" style="fill: rgb(38, 50, 56); transform-origin: 142.102px 425.338px 0px;" id="el4qmoz21gut" class="animable"></path><path d="M137.58,425.42s.08.18.17.38.15.36.2.36.06-.21-.06-.44S137.61,425.39,137.58,425.42Z" style="fill: rgb(38, 50, 56); transform-origin: 137.781px 425.789px 0px;" id="elmhghuei3xmh" class="animable"></path><path d="M136.56,424.24s.06.17.2.3.28.22.31.18-.06-.16-.2-.3S136.59,424.21,136.56,424.24Z" style="fill: rgb(38, 50, 56); transform-origin: 136.818px 424.482px 0px;" id="elonrgu9vcuw" class="animable"></path><path d="M135.14,423.73s.19,0,.39.1.34.16.37.13-.08-.21-.33-.28S135.13,423.69,135.14,423.73Z" style="fill: rgb(38, 50, 56); transform-origin: 135.521px 423.811px 0px;" id="elhhd0p05poa" class="animable"></path><path d="M134.14,423.51s.06.1.17.14.22,0,.23,0-.06-.11-.17-.15S134.15,423.47,134.14,423.51Z" style="fill: rgb(38, 50, 56); transform-origin: 134.34px 423.572px 0px;" id="elxtlj4w9yqfm" class="animable"></path><path d="M116.38,171,119,188.68l4-.76a2.68,2.68,0,0,0,1.83-.87c.58-.85,0-2-.72-2.76s-1.66-1.37-1.93-2.37.26-2.11.26-3.17a5.52,5.52,0,0,0-1.13-3c-.61-.9-1.35-1.46-1.35-4.34" style="fill: rgb(38, 50, 56); transform-origin: 120.723px 179.84px 0px;" id="el4kwnf467bpa" class="animable"></path><path d="M112.71,208.19c-.22-4.42-.37-9.07-.37-9.07s5.65-1.24,6.44-8.72c.76-7.14-1.25-23.43-1.25-23.43h0a21.35,21.35,0,0,0-23.45,6.67h0l2.34,35.84a7.71,7.71,0,0,0,8.52,6.92h0A8.15,8.15,0,0,0,112.71,208.19Z" style="fill: rgb(255, 190, 157); transform-origin: 106.516px 191.129px 0px;" id="elho6g7vsarrj" class="animable"></path><path d="M117.33,179.85a1,1,0,0,1-.87,1,.91.91,0,0,1-1-.81,1,1,0,0,1,.87-1A.91.91,0,0,1,117.33,179.85Z" style="fill: rgb(38, 50, 56); transform-origin: 116.395px 179.945px 0px;" id="eli1xskds6q9" class="animable"></path><path d="M117.57,178.7c-.11.13-.86-.36-1.89-.31s-1.74.61-1.86.49.05-.28.36-.54a2.65,2.65,0,0,1,1.49-.54,2.47,2.47,0,0,1,1.51.4C117.51,178.42,117.62,178.64,117.57,178.7Z" style="fill: rgb(38, 50, 56); transform-origin: 115.682px 178.346px 0px;" id="eli4rqwhqrzfi" class="animable"></path><path d="M106.55,180.57a1,1,0,0,1-.87,1,.91.91,0,0,1-1-.81,1,1,0,0,1,.87-1A.91.91,0,0,1,106.55,180.57Z" style="fill: rgb(38, 50, 56); transform-origin: 105.615px 180.666px 0px;" id="elbteav5dxqtu" class="animable"></path><path d="M106.9,179.63c-.11.13-.86-.37-1.89-.31s-1.74.6-1.86.48,0-.28.36-.53a2.58,2.58,0,0,1,1.49-.55,2.54,2.54,0,0,1,1.51.4C106.84,179.35,107,179.57,106.9,179.63Z" style="fill: rgb(38, 50, 56); transform-origin: 105.018px 179.266px 0px;" id="elhbxel5qbxkp" class="animable"></path><path d="M111,187a6.5,6.5,0,0,1,1.65-.38c.26,0,.5-.11.54-.29a1.32,1.32,0,0,0-.22-.77l-.87-2a34.87,34.87,0,0,1-2-5.12,34.87,34.87,0,0,1,2.41,4.95c.3.68.58,1.34.85,2a1.57,1.57,0,0,1,.19,1,.69.69,0,0,1-.41.41,1.58,1.58,0,0,1-.44.08A6.58,6.58,0,0,1,111,187Z" style="fill: rgb(38, 50, 56); transform-origin: 111.834px 182.727px 0px;" id="elwbv3vfe44yr" class="animable"></path><path d="M112.34,199.12A18.88,18.88,0,0,1,102.27,197s2.67,5,10.07,3.9Z" style="fill: rgb(235, 153, 110); transform-origin: 107.305px 199.029px 0px;" id="elakhu25ah27d" class="animable"></path><path d="M107.86,189a3,3,0,0,1,1.11-.72,1,1,0,0,1,1.15.42c.07.16.13.36.29.38s.21-.07.33-.09.32.14.35.31a.84.84,0,0,1-.12.51,4.77,4.77,0,0,1-.5.84,2.15,2.15,0,0,1-.92.8,1.67,1.67,0,0,1-1.06,0,1.78,1.78,0,0,1-1.06-.75,1.37,1.37,0,0,1-.1-1.27,1.11,1.11,0,0,1,1-.67" style="fill: rgb(235, 153, 110); transform-origin: 109.156px 189.887px 0px;" id="elr5womo2maz" class="animable"></path><path d="M108,187.9c.17,0,.23,1.09,1.22,1.83s2.17.56,2.19.71-.26.23-.76.27a2.8,2.8,0,0,1-1.82-.53,2.43,2.43,0,0,1-1-1.54C107.85,188.18,108,187.89,108,187.9Z" style="fill: rgb(38, 50, 56); transform-origin: 109.619px 189.307px 0px;" id="el2877ddt7oim" class="animable"></path><path d="M97.23,181.68a4.49,4.49,0,0,0-2.38.28,3.09,3.09,0,0,0-1.67,1.68,3.24,3.24,0,0,0,.1,2.37,5.52,5.52,0,0,0,1.46,1.93,3.76,3.76,0,0,0,1.49.88,1.79,1.79,0,0,0,1.64-.34" style="fill: rgb(255, 190, 157); transform-origin: 95.4375px 185.258px 0px;" id="elc6e1ysu03ai" class="animable"></path><path d="M97,186.52c.09,0-.23.52-1,.36a1.52,1.52,0,0,1-.94-.73,3.53,3.53,0,0,1-.47-1.3,2.09,2.09,0,0,1,.27-1.42,1.4,1.4,0,0,1,1-.67c.74,0,1,.45.92.47s-.36-.18-.84,0a1.33,1.33,0,0,0-.75,1.57c.13.82.48,1.55.93,1.71S97,186.45,97,186.52Z" style="fill: rgb(235, 153, 110); transform-origin: 95.7891px 184.836px 0px;" id="ely8wr67sjzua" class="animable"></path><path d="M115.68,165.05a5.4,5.4,0,0,1-2.09,6.13c-2,1.27-4.49,1.1-6.81,1.4s-5,1.55-5.22,3.87c-.16,1.41.62,2.91,0,4.21-.67,1.52-2.8,1.88-3.62,3.32-1.31,2.32,1.7,5.08,1.13,7.68l-15.33-2.78a4.86,4.86,0,0,1,2-3.62,9.32,9.32,0,0,0-3.53,3.19l-4.54-1.54a11.53,11.53,0,0,1,7.14-6.54c2.45-.79-1-5.16.17-7.44,1.35-2.58,6.11-1.33,7.46-3.91.49-.94.32-2.08.59-3.11.61-2.34,3.35-3.47,5.77-3.51s4.84.66,7.25.42c1.32-.13,2.59-.55,3.9-.76a6,6,0,0,1,3.88.44,2.94,2.94,0,0,1,1.5,3.35" style="fill: rgb(38, 50, 56); transform-origin: 96.8086px 176.789px 0px;" id="elw6vvx2vmlx7" class="animable"></path><path d="M113.81,170c1,2.58,2.49,6.05,5.14,6.82,1-1.18,1.15-5.07.94-6.89a8.73,8.73,0,0,0-2.13-5,5.46,5.46,0,0,0-5-1.71" style="fill: rgb(38, 50, 56); transform-origin: 116.367px 169.979px 0px;" id="el9nxs2vun1qb" class="animable"></path><path d="M86.81,189.17a1.06,1.06,0,0,1-.19-.42,3,3,0,0,1,0-1.34,5.74,5.74,0,0,1,.77-2c.42-.71,1-1.44,1.47-2.32a5.48,5.48,0,0,0,.53-3.15,9.32,9.32,0,0,1,.22-3.89,2.9,2.9,0,0,1,1.49-1.63,8.74,8.74,0,0,1,2.15-.56,3.64,3.64,0,0,0,1.91-.79,4.21,4.21,0,0,0,1-1.89,17.5,17.5,0,0,1,.72-2.23,6.71,6.71,0,0,1,1.3-1.92,6.16,6.16,0,0,1,3.88-1.9,11.78,11.78,0,0,1,3.86.54,14.56,14.56,0,0,0,3.24.57,4.41,4.41,0,0,0,2.54-.65,3.75,3.75,0,0,0,1.32-1.48,3.81,3.81,0,0,0,.33-1.69,1,1,0,0,1,.09.45,2.89,2.89,0,0,1-.23,1.32,4,4,0,0,1-1.35,1.65,4.72,4.72,0,0,1-2.7.76,13.56,13.56,0,0,1-3.34-.51,11.42,11.42,0,0,0-3.72-.48,5.81,5.81,0,0,0-3.56,1.77,6.53,6.53,0,0,0-1.19,1.78,17.82,17.82,0,0,0-.69,2.17,4.62,4.62,0,0,1-1.16,2.12,4.2,4.2,0,0,1-2.17.92,8.16,8.16,0,0,0-2,.5A2.37,2.37,0,0,0,90,176.25a8.93,8.93,0,0,0-.24,3.7,8.06,8.06,0,0,1-.08,1.78,4.82,4.82,0,0,1-.56,1.56c-.51.92-1.11,1.63-1.54,2.3a5.86,5.86,0,0,0-.82,1.86A3.72,3.72,0,0,0,86.81,189.17Z" style="fill: rgb(69, 90, 100); transform-origin: 99.9961px 175.797px 0px;" id="elp22itdj13z" class="animable"></path><path d="M115.9,165.38a2.08,2.08,0,0,1-.12.4,6.06,6.06,0,0,1-.53,1.08,8.11,8.11,0,0,1-3.24,3,7.88,7.88,0,0,1-3,.83,21.79,21.79,0,0,1-3.49-.11,11.4,11.4,0,0,0-3.72.16,4.36,4.36,0,0,0-3,2.22c-.53,1.21-.37,2.63-.65,4a3.42,3.42,0,0,1-1,1.84,4.83,4.83,0,0,1-1.74.9,5,5,0,0,0-1.55.71,2.89,2.89,0,0,0-.92,1.24,8.47,8.47,0,0,0-.44,2.89,7.17,7.17,0,0,1-.93,4.27,2.49,2.49,0,0,1-.91.8,1.14,1.14,0,0,1-.4.14,3.5,3.5,0,0,0,1.14-1.05,7.35,7.35,0,0,0,.73-4.17,8.61,8.61,0,0,1,.41-3,3.34,3.34,0,0,1,1-1.45,6.26,6.26,0,0,1,1.67-.8,4.36,4.36,0,0,0,1.56-.8,3,3,0,0,0,.8-1.58c.26-1.24.07-2.69.67-4.1a4.84,4.84,0,0,1,3.37-2.49,11.7,11.7,0,0,1,3.89-.15,22.68,22.68,0,0,0,3.42.16,7.51,7.51,0,0,0,2.83-.73,8.33,8.33,0,0,0,3.23-2.74C115.66,165.9,115.85,165.36,115.9,165.38Z" style="fill: rgb(69, 90, 100); transform-origin: 103.08px 177.564px 0px;" id="elm4x4e7ag66" class="animable"></path><path d="M121.68,176.32a15.29,15.29,0,0,0-.58-1.73,3.93,3.93,0,0,0-1.19-1.47,18.81,18.81,0,0,1-2-1.54,4.24,4.24,0,0,1-1.25-2.26c-.15-.77-.18-1.46-.26-2a14.86,14.86,0,0,0-.41-1.78,2.89,2.89,0,0,1,.78,1.72c.26,1.12.21,2.82,1.5,4,.61.59,1.31,1.05,1.91,1.53a4,4,0,0,1,1.23,1.71A2.8,2.8,0,0,1,121.68,176.32Z" style="fill: rgb(69, 90, 100); transform-origin: 118.859px 170.93px 0px;" id="elzm1msuwec2f" class="animable"></path><path d="M106.91,177.33c-.14.26-.93.11-1.9.06s-1.77,0-1.88-.29.75-.82,1.94-.75S107.06,177.09,106.91,177.33Z" style="fill: rgb(38, 50, 56); transform-origin: 105.025px 176.912px 0px;" id="elsn6x6abdiw" class="animable"></path><path d="M117.24,176.71c0,.29-.75.51-1.66.5s-1.65-.26-1.65-.55.75-.51,1.66-.49S117.24,176.42,117.24,176.71Z" style="fill: rgb(38, 50, 56); transform-origin: 115.584px 176.691px 0px;" id="elt58s2qjo57n" class="animable"></path><g id="el91l34o9qymp"><rect x="118.08" y="229.69" width="43.54" height="43.54" rx="5.4" style="fill: rgb(69, 90, 100); transform-origin: 139.85px 251.46px 0px; transform: rotate(-71.36deg);" class="animable" id="ely0und2ns6to"></rect></g><path d="M154,255.92a25.8,25.8,0,0,0,.6-3.51,14.47,14.47,0,0,0-2.5-9.14,14.28,14.28,0,0,0-12.16-6.22,13.24,13.24,0,0,0-4,.69,13.46,13.46,0,0,0-3.81,1.9,14.15,14.15,0,0,0-5.38,16,14.2,14.2,0,0,0,4.67,6.83,14.38,14.38,0,0,0,21-3.35,27.51,27.51,0,0,0,1.65-3.15,1.35,1.35,0,0,1-.06.23l-.23.65a6.89,6.89,0,0,1-.45,1,9.34,9.34,0,0,1-.74,1.35,14,14,0,0,1-2.73,3.21,14.71,14.71,0,0,1-4.84,2.79,14.54,14.54,0,0,1-6.73.67,14.82,14.82,0,0,1-7.14-3.06,14,14,0,0,1-2.9-3.08,13.82,13.82,0,0,1-2-4,14.65,14.65,0,0,1,5.57-16.52,14,14,0,0,1,4-2,13.81,13.81,0,0,1,4.18-.69,14.61,14.61,0,0,1,12.48,6.5,14.44,14.44,0,0,1,2.15,5.15,13.68,13.68,0,0,1,.24,4.21,9.79,9.79,0,0,1-.23,1.52,6.41,6.41,0,0,1-.27,1.09l-.21.66A.73.73,0,0,1,154,255.92Z" style="fill: rgb(250, 250, 250); transform-origin: 140.238px 251.26px 0px;" id="el4kd2t7q0p66" class="animable"></path><path d="M154.85,255.65a10.14,10.14,0,0,1-3.1-.78,9.68,9.68,0,0,1-2.93-1.26,9.94,9.94,0,0,1,3.1.77A9.69,9.69,0,0,1,154.85,255.65Z" style="fill: rgb(250, 250, 250); transform-origin: 151.836px 254.629px 0px;" id="eltpa93c86ky" class="animable"></path><path d="M135,264.82a19.64,19.64,0,0,1,2-6,9.94,9.94,0,0,1-.77,3.1A10.14,10.14,0,0,1,135,264.82Z" style="fill: rgb(250, 250, 250); transform-origin: 136px 261.82px 0px;" id="elwr0niucdqk" class="animable"></path><path d="M142.27,243.34a9.94,9.94,0,0,1,.77-3.1,9.55,9.55,0,0,1,1.27-2.93,10.29,10.29,0,0,1-.77,3.1A10,10,0,0,1,142.27,243.34Z" style="fill: rgb(250, 250, 250); transform-origin: 143.289px 240.324px 0px;" id="elj5wna6ol2u" class="animable"></path><path d="M132.74,248.19a10.23,10.23,0,0,1-3.1-.77,10.14,10.14,0,0,1-2.94-1.27,10.25,10.25,0,0,1,3.11.77A9.69,9.69,0,0,1,132.74,248.19Z" style="fill: rgb(250, 250, 250); transform-origin: 129.719px 247.17px 0px;" id="elpr9sriijlq" class="animable"></path><path d="M149.11,246.21a27.4,27.4,0,0,1-4.73,2.63,27.56,27.56,0,0,1-5,2.17,28.39,28.39,0,0,1,4.73-2.63A28.25,28.25,0,0,1,149.11,246.21Z" style="fill: rgb(250, 250, 250); transform-origin: 144.244px 248.611px 0px;" id="eljv67dbuk2to" class="animable"></path><path d="M145.6,253a10.59,10.59,0,0,1-3.13-.78,10.12,10.12,0,0,1-3-1.28,10.59,10.59,0,0,1,3.13.78A10.12,10.12,0,0,1,145.6,253Z" style="fill: rgb(250, 250, 250); transform-origin: 142.535px 251.971px 0px;" id="el02gtddz582o4" class="animable"></path><path d="M139.85,273.47l3.33,1.82c3.17,1.4,4.88,2.29,6.17,2,1.73-.45.77-2.37.77-2.37s2.6.48,3.14-1a1.53,1.53,0,0,0-.61-1.67s2.35.33,3.17-.25c1.14-.8.11-2.15.11-2.15,3.52-.14,4.18-1.87,3.67-2.37s-3.09-.71-3.09-.71c-2-.47-7.52-1.68-4.31-3.3s5.05-4.06,5.09-5.07a1.12,1.12,0,0,0-2-.57,12.81,12.81,0,0,1-2.86,2.21,8.56,8.56,0,0,1-2.69,1.11c-1.11.24-2.06.4-2.87.52l-4.54,1.19Z" style="fill: rgb(255, 190, 157); transform-origin: 149.803px 267.369px 0px;" id="elio8fzjatvhm" class="animable"></path><path d="M81.23,229.21c1.6,6.63,7,18.56,12.23,28.34s13.3,12.07,13.3,12.07L143.08,277l2.78-16.05s-31.52-8.31-34.13-9l-17-33.12" style="fill: #4d4da9; transform-origin: 113.545px 247.914px 0px;" id="elcaemom9ce3t" class="animable"></path><path d="M82.45,214.23a3.45,3.45,0,0,1,.66-.28,8.23,8.23,0,0,1,2-.48,8.67,8.67,0,0,1,3.25.27,11,11,0,0,1,3.82,2,25.35,25.35,0,0,1,6.74,8.87c1.78,3.81,3.82,7.93,5.9,12.29l7.13,14.91-.15-.13,12.92,3.54,3.62,1,1,.29a1.13,1.13,0,0,1,.32.12,1.63,1.63,0,0,1-.34-.05l-1-.23-3.66-.9-13-3.35-.1,0,0-.1c-2.11-4.38-4.57-9.47-7.19-14.88-2.07-4.36-4.11-8.51-5.85-12.3A25.44,25.44,0,0,0,92,216a11,11,0,0,0-3.68-2,8.77,8.77,0,0,0-3.15-.35A17.71,17.71,0,0,0,82.45,214.23Z" style="fill: rgb(38, 50, 56); transform-origin: 106.055px 235.025px 0px;" id="el0ek75dgco04o" class="animable"></path></g><defs>     <filter id="active" height="200%">         <feMorphology in="SourceAlpha" result="DILATED" operator="dilate" radius="2"></feMorphology>                <feFlood flood-color="#32DFEC" flood-opacity="1" result="PINK"></feFlood>        <feComposite in="PINK" in2="DILATED" operator="in" result="OUTLINE"></feComposite>        <feMerge>            <feMergeNode in="OUTLINE"></feMergeNode>            <feMergeNode in="SourceGraphic"></feMergeNode>        </feMerge>    </filter>    <filter id="hover" height="200%">        <feMorphology in="SourceAlpha" result="DILATED" operator="dilate" radius="2"></feMorphology>                <feFlood flood-color="#ff0000" flood-opacity="0.5" result="PINK"></feFlood>        <feComposite in="PINK" in2="DILATED" operator="in" result="OUTLINE"></feComposite>        <feMerge>            <feMergeNode in="OUTLINE"></feMergeNode>            <feMergeNode in="SourceGraphic"></feMergeNode>        </feMerge>            <feColorMatrix type="matrix" values="0   0   0   0   0                0   1   0   0   0                0   0   0   0   0                0   0   0   1   0 "></feColorMatrix>    </filter></defs></svg>